<svg width="259" height="165" viewBox="0 0 259 165" fill="none" xmlns="http://www.w3.org/2000/svg">
<g filter="url(#filter0_d_1096_4934)">
<rect x="7.12183" y="6.96582" width="236.694" height="143.057" fill="#151515" stroke="white"/>
<rect x="28.2753" y="24.7969" width="194.387" height="92.3562" rx="9.5" fill="url(#paint0_linear_1096_4934)" stroke="black"/>
<mask id="path-3-outside-1_1096_4934" maskUnits="userSpaceOnUse" x="84.1253" y="42.4355" width="74" height="15" fill="black">
<rect fill="white" x="84.1253" y="42.4355" width="74" height="15"/>
<path d="M85.8299 45.3105V43.7992H94.8356V45.3105H91.2049V55.4355H89.4549V45.3105H85.8299ZM97.063 55.4355V46.7083H98.7051V48.0946H98.796C98.9551 47.6249 99.2354 47.2556 99.6369 46.9867C100.042 46.714 100.501 46.5776 101.012 46.5776C101.118 46.5776 101.243 46.5814 101.387 46.589C101.535 46.5965 101.65 46.606 101.733 46.6174V48.2424C101.665 48.2234 101.544 48.2026 101.37 48.1799C101.196 48.1533 101.021 48.1401 100.847 48.1401C100.446 48.1401 100.088 48.2253 99.7732 48.3958C99.4626 48.5624 99.2164 48.7954 99.0346 49.0946C98.8528 49.3901 98.7619 49.7272 98.7619 50.106V55.4355H97.063ZM106.945 55.6287C106.392 55.6287 105.892 55.5265 105.445 55.3219C104.998 55.1136 104.644 54.8124 104.383 54.4185C104.125 54.0246 103.996 53.5416 103.996 52.9696C103.996 52.4772 104.091 52.0719 104.281 51.7537C104.47 51.4355 104.726 51.1837 105.048 50.998C105.37 50.8124 105.729 50.6723 106.127 50.5776C106.525 50.4829 106.93 50.4109 107.343 50.3617C107.866 50.3011 108.29 50.2518 108.616 50.214C108.941 50.1723 109.178 50.106 109.326 50.0151C109.474 49.9242 109.548 49.7765 109.548 49.5719V49.5321C109.548 49.0359 109.407 48.6515 109.127 48.3787C108.851 48.106 108.438 47.9696 107.888 47.9696C107.316 47.9696 106.866 48.0965 106.536 48.3503C106.21 48.6003 105.985 48.8787 105.86 49.1855L104.263 48.8219C104.453 48.2916 104.729 47.8636 105.093 47.5378C105.46 47.2083 105.883 46.9696 106.36 46.8219C106.837 46.6704 107.339 46.5946 107.866 46.5946C108.214 46.5946 108.584 46.6363 108.974 46.7196C109.368 46.7992 109.735 46.9469 110.076 47.1628C110.421 47.3787 110.703 47.6874 110.923 48.089C111.142 48.4867 111.252 49.0037 111.252 49.6401V55.4355H109.593V54.2424H109.525C109.415 54.4621 109.25 54.678 109.031 54.8901C108.811 55.1022 108.529 55.2783 108.184 55.4185C107.839 55.5587 107.426 55.6287 106.945 55.6287ZM107.315 54.2651C107.784 54.2651 108.186 54.1723 108.519 53.9867C108.856 53.8011 109.112 53.5587 109.286 53.2594C109.464 52.9564 109.553 52.6325 109.553 52.2878V51.1628C109.493 51.2234 109.375 51.2802 109.201 51.3333C109.031 51.3825 108.835 51.4261 108.616 51.464C108.396 51.498 108.182 51.5302 107.974 51.5605C107.765 51.5871 107.591 51.6098 107.451 51.6287C107.121 51.6704 106.82 51.7405 106.548 51.839C106.279 51.9374 106.063 52.0795 105.9 52.2651C105.741 52.4469 105.661 52.6893 105.661 52.9924C105.661 53.4128 105.816 53.731 106.127 53.9469C106.438 54.159 106.834 54.2651 107.315 54.2651ZM118.471 55.6117C117.626 55.6117 116.899 55.4204 116.289 55.0378C115.683 54.6515 115.217 54.1193 114.891 53.4412C114.566 52.7632 114.403 51.9867 114.403 51.1117C114.403 50.2253 114.57 49.4431 114.903 48.7651C115.236 48.0833 115.706 47.5511 116.312 47.1685C116.918 46.7859 117.632 46.5946 118.454 46.5946C119.117 46.5946 119.708 46.7177 120.227 46.964C120.746 47.2064 121.164 47.5473 121.482 47.9867C121.804 48.4261 121.996 48.9393 122.056 49.5265H120.403C120.312 49.1174 120.104 48.7651 119.778 48.4696C119.456 48.1742 119.024 48.0265 118.482 48.0265C118.009 48.0265 117.594 48.1515 117.238 48.4015C116.886 48.6477 116.611 48.9999 116.414 49.4583C116.217 49.9128 116.119 50.4507 116.119 51.0719C116.119 51.7083 116.215 52.2575 116.409 52.7196C116.602 53.1818 116.874 53.5397 117.227 53.7935C117.583 54.0473 118.001 54.1742 118.482 54.1742C118.804 54.1742 119.096 54.1155 119.357 53.998C119.623 53.8768 119.844 53.7045 120.022 53.481C120.204 53.2575 120.331 52.9886 120.403 52.6742H122.056C121.996 53.2386 121.812 53.7424 121.505 54.1855C121.198 54.6287 120.787 54.9772 120.272 55.231C119.761 55.4848 119.16 55.6117 118.471 55.6117ZM126.716 52.4753L126.704 50.4015H127L130.477 46.7083H132.511L128.545 50.9128H128.278L126.716 52.4753ZM125.153 55.4355V43.7992H126.852V55.4355H125.153ZM130.664 55.4355L127.539 51.2878L128.71 50.1003L132.75 55.4355H130.664ZM144.882 55.6287C143.984 55.6249 143.217 55.3882 142.581 54.9185C141.945 54.4488 141.458 53.7651 141.121 52.8674C140.784 51.9696 140.615 50.8882 140.615 49.623C140.615 48.3617 140.784 47.284 141.121 46.3901C141.462 45.4962 141.95 44.8143 142.587 44.3446C143.227 43.8749 143.992 43.6401 144.882 43.6401C145.772 43.6401 146.535 43.8768 147.172 44.3503C147.808 44.82 148.295 45.5018 148.632 46.3958C148.973 47.2859 149.143 48.3617 149.143 49.623C149.143 50.892 148.975 51.9753 148.638 52.873C148.301 53.767 147.814 54.4507 147.177 54.9242C146.541 55.3939 145.776 55.6287 144.882 55.6287ZM144.882 54.1117C145.67 54.1117 146.285 53.7272 146.729 52.9583C147.176 52.1893 147.399 51.0776 147.399 49.623C147.399 48.6571 147.297 47.8408 147.092 47.1742C146.892 46.5037 146.602 45.9962 146.223 45.6515C145.848 45.303 145.401 45.1287 144.882 45.1287C144.098 45.1287 143.482 45.5151 143.035 46.2878C142.588 47.0605 142.363 48.1723 142.359 49.623C142.359 50.5927 142.46 51.4128 142.66 52.0833C142.865 52.7499 143.155 53.2556 143.53 53.6003C143.905 53.9412 144.356 54.1117 144.882 54.1117ZM156.854 43.7992V55.4355H155.092V45.5605H155.024L152.24 47.3787V45.6969L155.144 43.7992H156.854Z"/>
</mask>
<path d="M85.8299 45.3105V43.7992H94.8356V45.3105H91.2049V55.4355H89.4549V45.3105H85.8299ZM97.063 55.4355V46.7083H98.7051V48.0946H98.796C98.9551 47.6249 99.2354 47.2556 99.6369 46.9867C100.042 46.714 100.501 46.5776 101.012 46.5776C101.118 46.5776 101.243 46.5814 101.387 46.589C101.535 46.5965 101.65 46.606 101.733 46.6174V48.2424C101.665 48.2234 101.544 48.2026 101.37 48.1799C101.196 48.1533 101.021 48.1401 100.847 48.1401C100.446 48.1401 100.088 48.2253 99.7732 48.3958C99.4626 48.5624 99.2164 48.7954 99.0346 49.0946C98.8528 49.3901 98.7619 49.7272 98.7619 50.106V55.4355H97.063ZM106.945 55.6287C106.392 55.6287 105.892 55.5265 105.445 55.3219C104.998 55.1136 104.644 54.8124 104.383 54.4185C104.125 54.0246 103.996 53.5416 103.996 52.9696C103.996 52.4772 104.091 52.0719 104.281 51.7537C104.47 51.4355 104.726 51.1837 105.048 50.998C105.37 50.8124 105.729 50.6723 106.127 50.5776C106.525 50.4829 106.93 50.4109 107.343 50.3617C107.866 50.3011 108.29 50.2518 108.616 50.214C108.941 50.1723 109.178 50.106 109.326 50.0151C109.474 49.9242 109.548 49.7765 109.548 49.5719V49.5321C109.548 49.0359 109.407 48.6515 109.127 48.3787C108.851 48.106 108.438 47.9696 107.888 47.9696C107.316 47.9696 106.866 48.0965 106.536 48.3503C106.21 48.6003 105.985 48.8787 105.86 49.1855L104.263 48.8219C104.453 48.2916 104.729 47.8636 105.093 47.5378C105.46 47.2083 105.883 46.9696 106.36 46.8219C106.837 46.6704 107.339 46.5946 107.866 46.5946C108.214 46.5946 108.584 46.6363 108.974 46.7196C109.368 46.7992 109.735 46.9469 110.076 47.1628C110.421 47.3787 110.703 47.6874 110.923 48.089C111.142 48.4867 111.252 49.0037 111.252 49.6401V55.4355H109.593V54.2424H109.525C109.415 54.4621 109.25 54.678 109.031 54.8901C108.811 55.1022 108.529 55.2783 108.184 55.4185C107.839 55.5587 107.426 55.6287 106.945 55.6287ZM107.315 54.2651C107.784 54.2651 108.186 54.1723 108.519 53.9867C108.856 53.8011 109.112 53.5587 109.286 53.2594C109.464 52.9564 109.553 52.6325 109.553 52.2878V51.1628C109.493 51.2234 109.375 51.2802 109.201 51.3333C109.031 51.3825 108.835 51.4261 108.616 51.464C108.396 51.498 108.182 51.5302 107.974 51.5605C107.765 51.5871 107.591 51.6098 107.451 51.6287C107.121 51.6704 106.82 51.7405 106.548 51.839C106.279 51.9374 106.063 52.0795 105.9 52.2651C105.741 52.4469 105.661 52.6893 105.661 52.9924C105.661 53.4128 105.816 53.731 106.127 53.9469C106.438 54.159 106.834 54.2651 107.315 54.2651ZM118.471 55.6117C117.626 55.6117 116.899 55.4204 116.289 55.0378C115.683 54.6515 115.217 54.1193 114.891 53.4412C114.566 52.7632 114.403 51.9867 114.403 51.1117C114.403 50.2253 114.57 49.4431 114.903 48.7651C115.236 48.0833 115.706 47.5511 116.312 47.1685C116.918 46.7859 117.632 46.5946 118.454 46.5946C119.117 46.5946 119.708 46.7177 120.227 46.964C120.746 47.2064 121.164 47.5473 121.482 47.9867C121.804 48.4261 121.996 48.9393 122.056 49.5265H120.403C120.312 49.1174 120.104 48.7651 119.778 48.4696C119.456 48.1742 119.024 48.0265 118.482 48.0265C118.009 48.0265 117.594 48.1515 117.238 48.4015C116.886 48.6477 116.611 48.9999 116.414 49.4583C116.217 49.9128 116.119 50.4507 116.119 51.0719C116.119 51.7083 116.215 52.2575 116.409 52.7196C116.602 53.1818 116.874 53.5397 117.227 53.7935C117.583 54.0473 118.001 54.1742 118.482 54.1742C118.804 54.1742 119.096 54.1155 119.357 53.998C119.623 53.8768 119.844 53.7045 120.022 53.481C120.204 53.2575 120.331 52.9886 120.403 52.6742H122.056C121.996 53.2386 121.812 53.7424 121.505 54.1855C121.198 54.6287 120.787 54.9772 120.272 55.231C119.761 55.4848 119.16 55.6117 118.471 55.6117ZM126.716 52.4753L126.704 50.4015H127L130.477 46.7083H132.511L128.545 50.9128H128.278L126.716 52.4753ZM125.153 55.4355V43.7992H126.852V55.4355H125.153ZM130.664 55.4355L127.539 51.2878L128.71 50.1003L132.75 55.4355H130.664ZM144.882 55.6287C143.984 55.6249 143.217 55.3882 142.581 54.9185C141.945 54.4488 141.458 53.7651 141.121 52.8674C140.784 51.9696 140.615 50.8882 140.615 49.623C140.615 48.3617 140.784 47.284 141.121 46.3901C141.462 45.4962 141.95 44.8143 142.587 44.3446C143.227 43.8749 143.992 43.6401 144.882 43.6401C145.772 43.6401 146.535 43.8768 147.172 44.3503C147.808 44.82 148.295 45.5018 148.632 46.3958C148.973 47.2859 149.143 48.3617 149.143 49.623C149.143 50.892 148.975 51.9753 148.638 52.873C148.301 53.767 147.814 54.4507 147.177 54.9242C146.541 55.3939 145.776 55.6287 144.882 55.6287ZM144.882 54.1117C145.67 54.1117 146.285 53.7272 146.729 52.9583C147.176 52.1893 147.399 51.0776 147.399 49.623C147.399 48.6571 147.297 47.8408 147.092 47.1742C146.892 46.5037 146.602 45.9962 146.223 45.6515C145.848 45.303 145.401 45.1287 144.882 45.1287C144.098 45.1287 143.482 45.5151 143.035 46.2878C142.588 47.0605 142.363 48.1723 142.359 49.623C142.359 50.5927 142.46 51.4128 142.66 52.0833C142.865 52.7499 143.155 53.2556 143.53 53.6003C143.905 53.9412 144.356 54.1117 144.882 54.1117ZM156.854 43.7992V55.4355H155.092V45.5605H155.024L152.24 47.3787V45.6969L155.144 43.7992H156.854Z" fill="white"/>
<path d="M85.8299 45.3105H84.8299V46.3105H85.8299V45.3105ZM85.8299 43.7992V42.7992H84.8299V43.7992H85.8299ZM94.8356 43.7992H95.8356V42.7992H94.8356V43.7992ZM94.8356 45.3105V46.3105H95.8356V45.3105H94.8356ZM91.2049 45.3105V44.3105H90.2049V45.3105H91.2049ZM91.2049 55.4355V56.4355H92.2049V55.4355H91.2049ZM89.4549 55.4355H88.4549V56.4355H89.4549V55.4355ZM89.4549 45.3105H90.4549V44.3105H89.4549V45.3105ZM86.8299 45.3105V43.7992H84.8299V45.3105H86.8299ZM85.8299 44.7992H94.8356V42.7992H85.8299V44.7992ZM93.8356 43.7992V45.3105H95.8356V43.7992H93.8356ZM94.8356 44.3105H91.2049V46.3105H94.8356V44.3105ZM90.2049 45.3105V55.4355H92.2049V45.3105H90.2049ZM91.2049 54.4355H89.4549V56.4355H91.2049V54.4355ZM90.4549 55.4355V45.3105H88.4549V55.4355H90.4549ZM89.4549 44.3105H85.8299V46.3105H89.4549V44.3105ZM97.063 55.4355H96.063V56.4355H97.063V55.4355ZM97.063 46.7083V45.7083H96.063V46.7083H97.063ZM98.7051 46.7083H99.7051V45.7083H98.7051V46.7083ZM98.7051 48.0946H97.7051V49.0946H98.7051V48.0946ZM98.796 48.0946V49.0946H99.5131L99.7431 48.4154L98.796 48.0946ZM99.6369 46.9867L100.193 47.8175L100.195 47.8163L99.6369 46.9867ZM101.387 46.589L101.334 47.5876L101.336 47.5876L101.387 46.589ZM101.733 46.6174H102.733V45.7445L101.869 45.6265L101.733 46.6174ZM101.733 48.2424L101.466 49.2059L102.733 49.558V48.2424H101.733ZM101.37 48.1799L101.219 49.1685L101.23 49.1701L101.24 49.1715L101.37 48.1799ZM99.7732 48.3958L100.246 49.2769L100.25 49.2749L99.7732 48.3958ZM99.0346 49.0946L99.8863 49.6187L99.8892 49.6139L99.0346 49.0946ZM98.7619 55.4355V56.4355H99.7619V55.4355H98.7619ZM98.063 55.4355V46.7083H96.063V55.4355H98.063ZM97.063 47.7083H98.7051V45.7083H97.063V47.7083ZM97.7051 46.7083V48.0946H99.7051V46.7083H97.7051ZM98.7051 49.0946H98.796V47.0946H98.7051V49.0946ZM99.7431 48.4154C99.8336 48.1482 99.9797 47.9606 100.193 47.8175L99.0804 46.1558C98.491 46.5506 98.0765 47.1017 97.8488 47.7738L99.7431 48.4154ZM100.195 47.8163C100.427 47.66 100.69 47.5776 101.012 47.5776V45.5776C100.311 45.5776 99.6569 45.7679 99.0786 46.157L100.195 47.8163ZM101.012 47.5776C101.095 47.5776 101.202 47.5806 101.334 47.5876L101.439 45.5903C101.284 45.5821 101.14 45.5776 101.012 45.5776V47.5776ZM101.336 47.5876C101.473 47.5947 101.556 47.6024 101.598 47.6082L101.869 45.6265C101.744 45.6096 101.596 45.5984 101.438 45.5903L101.336 47.5876ZM100.733 46.6174V48.2424H102.733V46.6174H100.733ZM102.001 47.2788C101.857 47.2388 101.672 47.2108 101.499 47.1883L101.24 49.1715C101.319 49.1818 101.379 49.1907 101.422 49.1981C101.47 49.2063 101.479 49.2096 101.466 49.2059L102.001 47.2788ZM101.52 47.1912C101.297 47.1572 101.072 47.1401 100.847 47.1401V49.1401C100.97 49.1401 101.094 49.1495 101.219 49.1685L101.52 47.1912ZM100.847 47.1401C100.3 47.1401 99.7746 47.2575 99.2966 47.5167L100.25 49.2749C100.401 49.1931 100.591 49.1401 100.847 49.1401V47.1401ZM99.3004 47.5146C98.8336 47.7651 98.4551 48.1225 98.18 48.5754L99.8892 49.6139C99.9777 49.4683 100.092 49.3598 100.246 49.2769L99.3004 47.5146ZM98.1829 48.5705C97.8953 49.0379 97.7619 49.5598 97.7619 50.106H99.7619C99.7619 49.8947 99.8103 49.7422 99.8863 49.6187L98.1829 48.5705ZM97.7619 50.106V55.4355H99.7619V50.106H97.7619ZM98.7619 54.4355H97.063V56.4355H98.7619V54.4355ZM105.445 55.3219L105.023 56.2283L105.029 56.2312L105.445 55.3219ZM104.383 54.4185L103.546 54.9658L103.549 54.9714L104.383 54.4185ZM104.281 51.7537L105.14 52.2652L104.281 51.7537ZM105.048 50.998L105.547 51.8644L105.048 50.998ZM107.343 50.3617L107.228 49.3683L107.225 49.3687L107.343 50.3617ZM108.616 50.214L108.731 51.2073L108.743 51.2059L108.616 50.214ZM109.326 50.0151L109.85 50.8668V50.8667L109.326 50.0151ZM109.127 48.3787L108.425 49.0907L108.43 49.0955L109.127 48.3787ZM106.536 48.3503L107.145 49.1436L107.146 49.1426L106.536 48.3503ZM105.86 49.1855L105.638 50.1606L106.466 50.3491L106.786 49.5628L105.86 49.1855ZM104.263 48.8219L103.322 48.4856L102.943 49.5467L104.041 49.7969L104.263 48.8219ZM105.093 47.5378L105.76 48.2827L105.761 48.2823L105.093 47.5378ZM106.36 46.8219L106.656 47.7772L106.663 47.775L106.36 46.8219ZM108.974 46.7196L108.765 47.6976L108.776 47.6999L108.974 46.7196ZM110.076 47.1628L109.541 48.0076L109.545 48.0103L110.076 47.1628ZM110.923 48.089L110.045 48.569L110.047 48.5725L110.923 48.089ZM111.252 55.4355V56.4355H112.252V55.4355H111.252ZM109.593 55.4355H108.593V56.4355H109.593V55.4355ZM109.593 54.2424H110.593V53.2424H109.593V54.2424ZM109.525 54.2424V53.2424H108.907L108.63 53.7952L109.525 54.2424ZM109.031 54.8901L108.336 54.1707L109.031 54.8901ZM108.184 55.4185L107.807 54.4921L108.184 55.4185ZM108.519 53.9867L108.037 53.1107L108.033 53.113L108.519 53.9867ZM109.286 53.2594L108.424 52.7529L108.422 52.7562L109.286 53.2594ZM109.553 51.1628H110.553V48.7486L108.846 50.4557L109.553 51.1628ZM109.201 51.3333L109.479 52.294L109.485 52.292L109.492 52.2899L109.201 51.3333ZM108.616 51.464L108.769 52.4521L108.777 52.4508L108.786 52.4494L108.616 51.464ZM107.974 51.5605L108.1 52.5525L108.109 52.5514L108.118 52.5501L107.974 51.5605ZM107.451 51.6287L107.576 52.6209L107.585 52.6197L107.451 51.6287ZM106.548 51.839L106.208 50.8984L106.204 50.8999L106.548 51.839ZM105.9 52.2651L105.148 51.6055L105.147 51.6066L105.9 52.2651ZM106.127 53.9469L105.556 54.768L105.563 54.7727L106.127 53.9469ZM106.945 54.6287C106.518 54.6287 106.162 54.5503 105.861 54.4126L105.029 56.2312C105.622 56.5026 106.267 56.6287 106.945 56.6287V54.6287ZM105.868 54.4155C105.58 54.2815 105.371 54.0994 105.216 53.8657L103.549 54.9714C103.917 55.5255 104.417 55.9457 105.023 56.2283L105.868 54.4155ZM105.22 53.8713C105.09 53.6721 104.996 53.3894 104.996 52.9696H102.996C102.996 53.6938 103.161 54.3771 103.546 54.9658L105.22 53.8713ZM104.996 52.9696C104.996 52.5996 105.068 52.3857 105.14 52.2652L103.421 51.2422C103.114 51.7581 102.996 52.3548 102.996 52.9696H104.996ZM105.14 52.2652C105.241 52.0947 105.373 51.9648 105.547 51.8644L104.548 50.1317C104.078 50.4025 103.699 50.7763 103.421 51.2422L105.14 52.2652ZM105.547 51.8644C105.777 51.7316 106.046 51.6249 106.359 51.5504L105.895 49.6048C105.413 49.7196 104.962 49.8933 104.548 50.1317L105.547 51.8644ZM106.359 51.5504C106.719 51.4647 107.086 51.3994 107.461 51.3546L107.225 49.3687C106.774 49.4224 106.331 49.5011 105.895 49.6048L106.359 51.5504ZM107.458 51.355C107.981 51.2944 108.405 51.2452 108.731 51.2073L108.5 49.2206C108.175 49.2585 107.751 49.3077 107.228 49.3683L107.458 51.355ZM108.743 51.2059C109.106 51.1594 109.516 51.0722 109.85 50.8668L108.802 49.1634C108.833 49.1445 108.831 49.1524 108.768 49.17C108.709 49.1865 108.618 49.2055 108.489 49.222L108.743 51.2059ZM109.85 50.8667C110.351 50.5586 110.548 50.0507 110.548 49.5719H108.548C108.548 49.5552 108.551 49.4831 108.598 49.3889C108.648 49.2875 108.725 49.2105 108.802 49.1634L109.85 50.8667ZM110.548 49.5719V49.5321H108.548V49.5719H110.548ZM110.548 49.5321C110.548 48.8426 110.347 48.1704 109.824 47.662L108.43 49.0955C108.468 49.1325 108.548 49.2293 108.548 49.5321H110.548ZM109.829 47.6668C109.3 47.1445 108.591 46.9696 107.888 46.9696V48.9696C108.285 48.9696 108.401 49.0675 108.425 49.0907L109.829 47.6668ZM107.888 46.9696C107.177 46.9696 106.486 47.1271 105.926 47.558L107.146 49.1426C107.246 49.066 107.456 48.9696 107.888 48.9696V46.9696ZM105.927 47.557C105.494 47.8894 105.14 48.302 104.934 48.8083L106.786 49.5628C106.83 49.4555 106.927 49.3112 107.145 49.1436L105.927 47.557ZM106.082 48.2105L104.486 47.8469L104.041 49.7969L105.638 50.1606L106.082 48.2105ZM105.205 49.1582C105.347 48.7606 105.539 48.4812 105.76 48.2827L104.426 46.793C103.92 47.2459 103.558 47.8226 103.322 48.4856L105.205 49.1582ZM105.761 48.2823C106.019 48.0502 106.314 47.8828 106.656 47.7772L106.064 45.8666C105.451 46.0564 104.901 46.3663 104.425 46.7934L105.761 48.2823ZM106.663 47.775C107.037 47.6562 107.437 47.5946 107.866 47.5946V45.5946C107.242 45.5946 106.638 45.6846 106.057 45.8688L106.663 47.775ZM107.866 47.5946C108.135 47.5946 108.434 47.6268 108.765 47.6976L109.183 45.7417C108.733 45.6458 108.294 45.5946 107.866 45.5946V47.5946ZM108.776 47.6999C109.05 47.7551 109.303 47.8568 109.541 48.0076L110.611 46.318C110.167 46.037 109.686 45.8432 109.172 45.7394L108.776 47.6999ZM109.545 48.0103C109.727 48.1245 109.897 48.2984 110.045 48.569L111.8 47.6089C111.508 47.0765 111.114 46.633 110.607 46.3153L109.545 48.0103ZM110.047 48.5725C110.159 48.7747 110.252 49.1087 110.252 49.6401H112.252C112.252 48.8987 112.126 48.1987 111.798 47.6054L110.047 48.5725ZM110.252 49.6401V55.4355H112.252V49.6401H110.252ZM111.252 54.4355H109.593V56.4355H111.252V54.4355ZM110.593 55.4355V54.2424H108.593V55.4355H110.593ZM109.593 53.2424H109.525V55.2424H109.593V53.2424ZM108.63 53.7952C108.582 53.8922 108.493 54.0189 108.336 54.1707L109.725 55.6095C110.007 55.337 110.248 55.0319 110.419 54.6896L108.63 53.7952ZM108.336 54.1707C108.226 54.2771 108.059 54.3899 107.807 54.4921L108.561 56.3449C108.998 56.1668 109.396 55.9273 109.725 55.6095L108.336 54.1707ZM107.807 54.4921C107.612 54.5717 107.333 54.6287 106.945 54.6287V56.6287C107.519 56.6287 108.067 56.5456 108.561 56.3449L107.807 54.4921ZM107.315 55.2651C107.916 55.2651 108.493 55.1459 109.006 54.8604L108.033 53.113C107.879 53.1987 107.653 53.2651 107.315 53.2651V55.2651ZM109.001 54.8627C109.479 54.5997 109.875 54.2354 110.15 53.7626L108.422 52.7562C108.349 52.8819 108.233 53.0025 108.037 53.1107L109.001 54.8627ZM110.148 53.766C110.415 53.3125 110.553 52.8143 110.553 52.2878H108.553C108.553 52.4508 108.514 52.6002 108.424 52.7529L110.148 53.766ZM110.553 52.2878V51.1628H108.553V52.2878H110.553ZM108.846 50.4557C108.889 50.4132 108.925 50.3867 108.947 50.3728C108.968 50.3585 108.982 50.3517 108.984 50.3507C108.987 50.3496 108.982 50.3519 108.969 50.357C108.955 50.3619 108.936 50.3686 108.91 50.3766L109.492 52.2899C109.684 52.2314 110.012 52.1181 110.26 51.8699L108.846 50.4557ZM108.923 50.3726C108.796 50.4094 108.638 50.4454 108.446 50.4785L108.786 52.4494C109.033 52.4068 109.265 52.3557 109.479 52.294L108.923 50.3726ZM108.462 50.4758C108.246 50.5094 108.035 50.5411 107.83 50.571L108.118 52.5501C108.329 52.5194 108.546 52.4867 108.769 52.4521L108.462 50.4758ZM107.847 50.5685C107.638 50.5953 107.461 50.6183 107.317 50.6377L107.585 52.6197C107.722 52.6012 107.893 52.5789 108.1 52.5525L107.847 50.5685ZM107.326 50.6366C106.933 50.6862 106.559 50.7716 106.208 50.8984L106.887 52.7795C107.081 52.7094 107.31 52.6546 107.576 52.6208L107.326 50.6366ZM106.204 50.8999C105.803 51.0467 105.438 51.2753 105.148 51.6055L106.651 52.9247C106.687 52.8837 106.754 52.8282 106.891 52.778L106.204 50.8999ZM105.147 51.6066C104.791 52.0135 104.661 52.5108 104.661 52.9924H106.661C106.661 52.9274 106.67 52.8988 106.671 52.895C106.672 52.8934 106.671 52.8966 106.667 52.9031C106.663 52.9096 106.658 52.9168 106.652 52.9236L105.147 51.6066ZM104.661 52.9924C104.661 53.6977 104.944 54.3421 105.556 54.768L106.698 53.1258C106.683 53.1155 106.678 53.1093 106.677 53.1084C106.676 53.1078 106.677 53.1082 106.676 53.1077C106.676 53.1069 106.672 53.0998 106.669 53.0828C106.665 53.0653 106.661 53.0361 106.661 52.9924H104.661ZM105.563 54.7727C106.081 55.1262 106.688 55.2651 107.315 55.2651V53.2651C106.979 53.2651 106.795 53.1918 106.691 53.1211L105.563 54.7727ZM116.289 55.0378L115.752 55.8811L115.758 55.8849L116.289 55.0378ZM114.903 48.7651L115.8 49.2063L115.801 49.2043L114.903 48.7651ZM116.312 47.1685L115.778 46.3229L116.312 47.1685ZM120.227 46.964L119.798 47.8674L119.803 47.87L120.227 46.964ZM121.482 47.9867L120.672 48.5732L120.676 48.5777L121.482 47.9867ZM122.056 49.5265V50.5265H123.165L123.051 49.4238L122.056 49.5265ZM120.403 49.5265L119.427 49.7434L119.601 50.5265H120.403V49.5265ZM119.778 48.4696L119.102 49.2064L119.106 49.2104L119.778 48.4696ZM117.238 48.4015L117.811 49.2211L117.813 49.2199L117.238 48.4015ZM116.414 49.4583L117.332 49.8559L117.333 49.8531L116.414 49.4583ZM116.409 52.7196L117.331 52.3339L116.409 52.7196ZM117.227 53.7935L116.642 54.6049L116.646 54.6078L117.227 53.7935ZM119.357 53.998L119.767 54.9102L119.773 54.9075L119.357 53.998ZM120.022 53.481L119.246 52.8499L119.24 52.8579L120.022 53.481ZM120.403 52.6742V51.6742H119.606L119.428 52.451L120.403 52.6742ZM122.056 52.6742L123.051 52.781L123.169 51.6742H122.056V52.6742ZM121.505 54.1855L122.327 54.7548L121.505 54.1855ZM120.272 55.231L119.83 54.3339L119.828 54.3353L120.272 55.231ZM118.471 54.6117C117.781 54.6117 117.245 54.4571 116.821 54.1907L115.758 55.8849C116.553 56.3836 117.471 56.6117 118.471 56.6117V54.6117ZM116.827 54.1946C116.385 53.9132 116.042 53.5265 115.793 53.0082L113.99 53.8743C114.393 54.7121 114.981 55.3897 115.752 55.881L116.827 54.1946ZM115.793 53.0082C115.542 52.4857 115.403 51.8611 115.403 51.1117H113.403C113.403 52.1122 113.59 53.0407 113.99 53.8743L115.793 53.0082ZM115.403 51.1117C115.403 50.3519 115.545 49.7252 115.8 49.2063L114.005 48.3239C113.594 49.1611 113.403 50.0987 113.403 51.1117H115.403ZM115.801 49.2043C116.058 48.6789 116.406 48.2917 116.846 48.0141L115.778 46.3229C115.006 46.8104 114.414 47.4877 114.004 48.3259L115.801 49.2043ZM116.846 48.0141C117.27 47.7466 117.793 47.5946 118.454 47.5946V45.5946C117.471 45.5946 116.566 45.8253 115.778 46.3229L116.846 48.0141ZM118.454 47.5946C118.991 47.5946 119.432 47.6939 119.798 47.8674L120.655 46.0605C119.983 45.7416 119.242 45.5946 118.454 45.5946V47.5946ZM119.803 47.87C120.177 48.0446 120.46 48.2792 120.672 48.5732L122.292 47.4002C121.869 46.8154 121.314 46.3681 120.65 46.0579L119.803 47.87ZM120.676 48.5777C120.884 48.8621 121.018 49.2034 121.062 49.6291L123.051 49.4238C122.974 48.6753 122.725 47.9901 122.289 47.3956L120.676 48.5777ZM122.056 48.5265H120.403V50.5265H122.056V48.5265ZM121.379 49.3095C121.241 48.6882 120.921 48.156 120.45 47.7289L119.106 49.2104C119.287 49.3742 119.383 49.5465 119.427 49.7434L121.379 49.3095ZM120.454 47.7328C119.906 47.23 119.212 47.0265 118.482 47.0265V49.0265C118.836 49.0265 119.006 49.1184 119.102 49.2064L120.454 47.7328ZM118.482 47.0265C117.822 47.0265 117.203 47.2044 116.663 47.583L117.813 49.2199C117.985 49.0986 118.195 49.0265 118.482 49.0265V47.0265ZM116.665 47.5818C116.137 47.9509 115.754 48.462 115.495 49.0634L117.333 49.8531C117.468 49.5378 117.634 49.3445 117.811 49.2211L116.665 47.5818ZM115.497 49.0607C115.233 49.6683 115.119 50.3475 115.119 51.0719H117.119C117.119 50.5539 117.201 50.1574 117.332 49.8559L115.497 49.0607ZM115.119 51.0719C115.119 51.8063 115.23 52.4928 115.486 53.1053L117.331 52.3339C117.201 52.0222 117.119 51.6103 117.119 51.0719H115.119ZM115.486 53.1053C115.739 53.7112 116.118 54.2274 116.642 54.6049L117.811 52.9821C117.631 52.852 117.464 52.6523 117.331 52.3339L115.486 53.1053ZM116.646 54.6078C117.189 54.9945 117.815 55.1742 118.482 55.1742V53.1742C118.188 53.1742 117.977 53.1001 117.807 52.9792L116.646 54.6078ZM118.482 55.1742C118.928 55.1742 119.362 55.0923 119.767 54.9102L118.948 53.0859C118.83 53.1386 118.681 53.1742 118.482 53.1742V55.1742ZM119.773 54.9075C120.178 54.7223 120.526 54.4531 120.804 54.1041L119.24 52.8579C119.162 52.9559 119.067 53.0313 118.942 53.0886L119.773 54.9075ZM120.798 54.1121C121.087 53.7561 121.276 53.3431 121.378 52.8973L119.428 52.451C119.386 52.634 119.32 52.7589 119.246 52.8499L120.798 54.1121ZM120.403 53.6742H122.056V51.6742H120.403V53.6742ZM121.062 52.5674C121.018 52.9748 120.89 53.3179 120.683 53.6163L122.327 54.7548C122.734 54.1669 122.973 53.5023 123.051 52.781L121.062 52.5674ZM120.683 53.6163C120.479 53.9105 120.203 54.1502 119.83 54.334L120.714 56.1281C121.372 55.8042 121.917 55.3469 122.327 54.7548L120.683 53.6163ZM119.828 54.3353C119.48 54.5077 119.038 54.6117 118.471 54.6117V56.6117C119.283 56.6117 120.041 56.4619 120.717 56.1268L119.828 54.3353ZM126.716 52.4753L125.716 52.4808L125.729 54.8764L127.423 53.1824L126.716 52.4753ZM126.704 50.4015V49.4015H125.699L125.704 50.4069L126.704 50.4015ZM127 50.4015V51.4015H127.432L127.728 51.087L127 50.4015ZM130.477 46.7083V45.7083H130.045L129.749 46.0228L130.477 46.7083ZM132.511 46.7083L133.238 47.3944L134.829 45.7083H132.511V46.7083ZM128.545 50.9128V51.9128H128.976L129.272 51.599L128.545 50.9128ZM128.278 50.9128V49.9128H127.864L127.571 50.2057L128.278 50.9128ZM125.153 55.4355H124.153V56.4355H125.153V55.4355ZM125.153 43.7992V42.7992H124.153V43.7992H125.153ZM126.852 43.7992H127.852V42.7992H126.852V43.7992ZM126.852 55.4355V56.4355H127.852V55.4355H126.852ZM130.664 55.4355L129.866 56.0373L130.166 56.4355H130.664V55.4355ZM127.539 51.2878L126.827 50.5858L126.221 51.2004L126.741 51.8896L127.539 51.2878ZM128.71 50.1003L129.507 49.4967L128.809 48.575L127.998 49.3983L128.71 50.1003ZM132.75 55.4355V56.4355H134.761L133.547 54.8319L132.75 55.4355ZM127.715 52.4698L127.704 50.396L125.704 50.4069L125.716 52.4808L127.715 52.4698ZM126.704 51.4015H127V49.4015H126.704V51.4015ZM127.728 51.087L131.205 47.3938L129.749 46.0228L126.272 49.716L127.728 51.087ZM130.477 47.7083H132.511V45.7083H130.477V47.7083ZM131.784 46.0221L127.818 50.2267L129.272 51.599L133.238 47.3944L131.784 46.0221ZM128.545 49.9128H128.278V51.9128H128.545V49.9128ZM127.571 50.2057L126.008 51.7682L127.423 53.1824L128.985 51.6199L127.571 50.2057ZM126.153 55.4355V43.7992H124.153V55.4355H126.153ZM125.153 44.7992H126.852V42.7992H125.153V44.7992ZM125.852 43.7992V55.4355H127.852V43.7992H125.852ZM126.852 54.4355H125.153V56.4355H126.852V54.4355ZM131.463 54.8338L128.338 50.6861L126.741 51.8896L129.866 56.0373L131.463 54.8338ZM128.252 51.9898L129.422 50.8023L127.998 49.3983L126.827 50.5858L128.252 51.9898ZM127.913 50.704L131.952 56.0392L133.547 54.8319L129.507 49.4967L127.913 50.704ZM132.75 54.4355H130.664V56.4355H132.75V54.4355ZM144.882 55.6287L144.878 56.6287H144.882V55.6287ZM141.121 52.8674L142.057 52.5158L141.121 52.8674ZM141.121 46.3901L140.186 46.0338L140.185 46.0372L141.121 46.3901ZM142.587 44.3446L141.995 43.5384L141.993 43.5401L142.587 44.3446ZM147.172 44.3503L146.575 45.1526L146.578 45.1549L147.172 44.3503ZM148.632 46.3958L147.696 46.7486L147.698 46.7534L148.632 46.3958ZM148.638 52.873L149.573 53.2259L149.574 53.2246L148.638 52.873ZM147.177 54.9242L147.771 55.7288L147.774 55.7265L147.177 54.9242ZM146.729 52.9583L145.864 52.4557L145.862 52.4589L146.729 52.9583ZM147.092 47.1742L146.134 47.461L146.136 47.4675L147.092 47.1742ZM146.223 45.6515L145.542 46.384L145.55 46.3911L146.223 45.6515ZM143.035 46.2878L142.17 45.7871L143.035 46.2878ZM142.359 49.623L141.359 49.6204V49.623H142.359ZM142.66 52.0833L141.702 52.3701L141.704 52.3766L142.66 52.0833ZM143.53 53.6003L142.853 54.3366L142.857 54.3403L143.53 53.6003ZM144.886 54.6287C144.171 54.6257 143.618 54.4409 143.175 54.1139L141.987 55.7231C142.817 56.3355 143.798 56.6242 144.878 56.6287L144.886 54.6287ZM143.175 54.1139C142.724 53.7813 142.341 53.2714 142.057 52.5158L140.185 53.2189C140.575 54.2588 141.165 55.1163 141.987 55.7231L143.175 54.1139ZM142.057 52.5158C141.773 51.76 141.615 50.8043 141.615 49.623H139.615C139.615 50.9721 139.794 52.1793 140.185 53.2189L142.057 52.5158ZM141.615 49.623C141.615 48.4458 141.773 47.4944 142.056 46.743L140.185 46.0372C139.794 47.0736 139.615 48.2776 139.615 49.623H141.615ZM142.055 46.7464C142.342 45.9936 142.728 45.4833 143.18 45.1492L141.993 43.5401C141.173 44.1454 140.581 44.9987 140.186 46.0338L142.055 46.7464ZM143.178 45.1509C143.626 44.8221 144.178 44.6401 144.882 44.6401V42.6401C143.806 42.6401 142.827 42.9277 141.995 43.5384L143.178 45.1509ZM144.882 44.6401C145.585 44.6401 146.132 44.823 146.575 45.1526L147.769 43.548C146.939 42.9306 145.96 42.6401 144.882 42.6401V44.6401ZM146.578 45.1549C147.03 45.4882 147.413 45.9972 147.696 46.7486L149.568 46.0429C149.177 45.0065 148.587 44.1518 147.766 43.5457L146.578 45.1549ZM147.698 46.7534C147.984 47.4991 148.143 48.4466 148.143 49.623H150.143C150.143 48.2767 149.962 47.0728 149.566 46.0381L147.698 46.7534ZM148.143 49.623C148.143 50.8085 147.985 51.766 147.702 52.5215L149.574 53.2246C149.964 52.1847 150.143 50.9754 150.143 49.623H148.143ZM147.702 52.5202C147.419 53.272 147.034 53.7842 146.581 54.1219L147.774 55.7265C148.593 55.1172 149.183 54.262 149.573 53.2259L147.702 52.5202ZM146.584 54.1196C146.141 54.4461 145.591 54.6287 144.882 54.6287V56.6287C145.961 56.6287 146.941 56.3416 147.771 55.7288L146.584 54.1196ZM144.882 55.1117C146.079 55.1117 147.001 54.4891 147.595 53.4576L145.862 52.4589C145.57 52.9653 145.261 53.1117 144.882 53.1117V55.1117ZM147.593 53.4608C148.168 52.4712 148.399 51.1538 148.399 49.623H146.399C146.399 51.0014 146.183 51.9075 145.864 52.4557L147.593 53.4608ZM148.399 49.623C148.399 48.593 148.291 47.6713 148.048 46.8809L146.136 47.4675C146.303 48.0104 146.399 48.7213 146.399 49.623H148.399ZM148.05 46.8873C147.816 46.1042 147.45 45.4157 146.896 44.9119L145.55 46.3911C145.754 46.5766 145.967 46.9032 146.134 47.461L148.05 46.8873ZM146.904 44.9189C146.341 44.3959 145.65 44.1287 144.882 44.1287V46.1287C145.152 46.1287 145.355 46.21 145.542 46.384L146.904 44.9189ZM144.882 44.1287C143.685 44.1287 142.766 44.7567 142.17 45.7871L143.901 46.7885C144.199 46.2734 144.511 46.1287 144.882 46.1287V44.1287ZM142.17 45.7871C141.597 46.778 141.363 48.0927 141.359 49.6204L143.359 49.6257C143.363 48.2518 143.58 47.343 143.901 46.7885L142.17 45.7871ZM141.359 49.623C141.359 50.6554 141.465 51.5785 141.702 52.3701L143.618 51.7964C143.454 51.2471 143.359 50.5301 143.359 49.623H141.359ZM141.704 52.3766C141.943 53.153 142.308 53.8352 142.853 54.3365L144.207 52.8641C144.002 52.676 143.787 52.3469 143.616 51.79L141.704 52.3766ZM142.857 54.3403C143.424 54.8555 144.117 55.1117 144.882 55.1117V53.1117C144.594 53.1117 144.386 53.0269 144.202 52.8604L142.857 54.3403ZM156.854 43.7992H157.854V42.7992H156.854V43.7992ZM156.854 55.4355V56.4355H157.854V55.4355H156.854ZM155.092 55.4355H154.092V56.4355H155.092V55.4355ZM155.092 45.5605H156.092V44.5605H155.092V45.5605ZM155.024 45.5605V44.5605H154.727L154.477 44.7233L155.024 45.5605ZM152.24 47.3787H151.24V49.2261L152.787 48.216L152.24 47.3787ZM152.24 45.6969L151.693 44.8599L151.24 45.1559V45.6969H152.24ZM155.144 43.7992V42.7992H154.846L154.596 42.9621L155.144 43.7992ZM155.854 43.7992V55.4355H157.854V43.7992H155.854ZM156.854 54.4355H155.092V56.4355H156.854V54.4355ZM156.092 55.4355V45.5605H154.092V55.4355H156.092ZM155.092 44.5605H155.024V46.5605H155.092V44.5605ZM154.477 44.7233L151.693 46.5415L152.787 48.216L155.571 46.3978L154.477 44.7233ZM153.24 47.3787V45.6969H151.24V47.3787H153.24ZM152.787 46.534L155.691 44.6362L154.596 42.9621L151.693 44.8599L152.787 46.534ZM155.144 44.7992H156.854V42.7992H155.144V44.7992Z" fill="black" mask="url(#path-3-outside-1_1096_4934)"/>
<rect x="57.1555" y="71.4746" width="136.626" height="21.8191" rx="10.9095" fill="#D9D9D9" stroke="black"/>
<circle cx="75.0488" cy="83.9908" r="5.26227" fill="#5A4C4C" stroke="black"/>
<circle cx="173.007" cy="83.9908" r="5.26227" fill="#5A4C4C" stroke="black"/>
<rect x="89.2428" y="75.3027" width="69.5706" height="14.1618" fill="#5A4C4C" stroke="black"/>
<path d="M52.6626 150.023L59.5797 125.814L188.476 125.813L195.394 150.023H52.6626Z" fill="url(#paint1_linear_1096_4934)" stroke="black"/>
</g>
<defs>
<filter id="filter0_d_1096_4934" x="0.621826" y="0.46582" width="257.694" height="164.058" filterUnits="userSpaceOnUse" color-interpolation-filters="sRGB">
<feFlood flood-opacity="0" result="BackgroundImageFix"/>
<feColorMatrix in="SourceAlpha" type="matrix" values="0 0 0 0 0 0 0 0 0 0 0 0 0 0 0 0 0 0 127 0" result="hardAlpha"/>
<feOffset dx="4" dy="4"/>
<feGaussianBlur stdDeviation="5"/>
<feComposite in2="hardAlpha" operator="out"/>
<feColorMatrix type="matrix" values="0 0 0 0 1 0 0 0 0 1 0 0 0 0 1 0 0 0 0.25 0"/>
<feBlend mode="normal" in2="BackgroundImageFix" result="effect1_dropShadow_1096_4934"/>
<feBlend mode="normal" in="SourceGraphic" in2="effect1_dropShadow_1096_4934" result="shape"/>
</filter>
<linearGradient id="paint0_linear_1096_4934" x1="125.469" y1="24.2969" x2="190.215" y2="117.653" gradientUnits="userSpaceOnUse">
<stop stop-color="#727272"/>
<stop offset="1" stop-color="#D8D8D8"/>
</linearGradient>
<linearGradient id="paint1_linear_1096_4934" x1="68.896" y1="150.523" x2="196.056" y2="137.918" gradientUnits="userSpaceOnUse">
<stop stop-color="#6580E1"/>
<stop offset="1" stop-color="#0D104E"/>
</linearGradient>
</defs>
</svg>
