<svg width="260" height="166" viewBox="0 0 260 166" fill="none" xmlns="http://www.w3.org/2000/svg">
<g filter="url(#filter0_d_1096_4925)">
<rect x="6.5" y="6.78223" width="239" height="144" fill="#151515" stroke="white"/>
<rect x="27.8588" y="24.7295" width="196.282" height="92.9675" rx="9.5" fill="url(#paint0_linear_1096_4925)" stroke="black"/>
<mask id="path-3-outside-1_1096_4925" maskUnits="userSpaceOnUse" x="84.2653" y="42.4482" width="78" height="15" fill="black">
<rect fill="white" x="84.2653" y="42.4482" width="78" height="15"/>
<path d="M85.9698 45.3232V43.8119H94.9755V45.3232H91.3448V55.4482H89.5948V45.3232H85.9698ZM97.2029 55.4482V46.721H98.845V48.1073H98.9359C99.095 47.6376 99.3753 47.2683 99.7768 46.9994C100.182 46.7267 100.64 46.5903 101.152 46.5903C101.258 46.5903 101.383 46.5941 101.527 46.6017C101.675 46.6092 101.79 46.6187 101.873 46.6301V48.2551C101.805 48.2361 101.684 48.2153 101.51 48.1926C101.336 48.166 101.161 48.1528 100.987 48.1528C100.586 48.1528 100.228 48.238 99.9132 48.4085C99.6026 48.5751 99.3563 48.8081 99.1745 49.1073C98.9927 49.4028 98.9018 49.7399 98.9018 50.1187V55.4482H97.2029ZM107.085 55.6414C106.532 55.6414 106.032 55.5392 105.585 55.3346C105.138 55.1263 104.784 54.8251 104.523 54.4312C104.265 54.0373 104.136 53.5543 104.136 52.9823C104.136 52.4899 104.231 52.0846 104.42 51.7664C104.61 51.4482 104.866 51.1963 105.187 51.0107C105.509 50.8251 105.869 50.685 106.267 50.5903C106.665 50.4956 107.07 50.4236 107.483 50.3744C108.006 50.3138 108.43 50.2645 108.756 50.2267C109.081 50.185 109.318 50.1187 109.466 50.0278C109.614 49.9369 109.687 49.7892 109.687 49.5846V49.5448C109.687 49.0486 109.547 48.6642 109.267 48.3914C108.991 48.1187 108.578 47.9823 108.028 47.9823C107.456 47.9823 107.006 48.1092 106.676 48.363C106.35 48.613 106.125 48.8914 106 49.1982L104.403 48.8346C104.593 48.3043 104.869 47.8763 105.233 47.5505C105.6 47.221 106.023 46.9823 106.5 46.8346C106.977 46.6831 107.479 46.6073 108.006 46.6073C108.354 46.6073 108.723 46.649 109.114 46.7323C109.508 46.8119 109.875 46.9596 110.216 47.1755C110.561 47.3914 110.843 47.7001 111.062 48.1017C111.282 48.4994 111.392 49.0164 111.392 49.6528V55.4482H109.733V54.2551H109.665C109.555 54.4748 109.39 54.6907 109.17 54.9028C108.951 55.1149 108.669 55.291 108.324 55.4312C107.979 55.5713 107.566 55.6414 107.085 55.6414ZM107.455 54.2778C107.924 54.2778 108.326 54.185 108.659 53.9994C108.996 53.8138 109.252 53.5713 109.426 53.2721C109.604 52.9691 109.693 52.6452 109.693 52.3005V51.1755C109.633 51.2361 109.515 51.2929 109.341 51.346C109.17 51.3952 108.975 51.4388 108.756 51.4767C108.536 51.5107 108.322 51.5429 108.114 51.5732C107.905 51.5998 107.731 51.6225 107.591 51.6414C107.261 51.6831 106.96 51.7532 106.687 51.8517C106.419 51.9501 106.203 52.0922 106.04 52.2778C105.881 52.4596 105.801 52.702 105.801 53.0051C105.801 53.4255 105.956 53.7437 106.267 53.9596C106.578 54.1717 106.973 54.2778 107.455 54.2778ZM118.611 55.6244C117.766 55.6244 117.039 55.4331 116.429 55.0505C115.823 54.6642 115.357 54.132 115.031 53.4539C114.706 52.7759 114.543 51.9994 114.543 51.1244C114.543 50.238 114.709 49.4558 115.043 48.7778C115.376 48.096 115.846 47.5638 116.452 47.1812C117.058 46.7986 117.772 46.6073 118.594 46.6073C119.257 46.6073 119.848 46.7304 120.367 46.9767C120.886 47.2191 121.304 47.56 121.622 47.9994C121.944 48.4388 122.136 48.952 122.196 49.5392H120.543C120.452 49.1301 120.244 48.7778 119.918 48.4823C119.596 48.1869 119.164 48.0392 118.622 48.0392C118.149 48.0392 117.734 48.1642 117.378 48.4142C117.026 48.6604 116.751 49.0126 116.554 49.471C116.357 49.9255 116.259 50.4634 116.259 51.0846C116.259 51.721 116.355 52.2702 116.548 52.7323C116.742 53.1945 117.014 53.5524 117.367 53.8062C117.723 54.06 118.141 54.1869 118.622 54.1869C118.944 54.1869 119.236 54.1282 119.497 54.0107C119.762 53.8895 119.984 53.7172 120.162 53.4937C120.344 53.2702 120.471 53.0013 120.543 52.6869H122.196C122.136 53.2513 121.952 53.7551 121.645 54.1982C121.338 54.6414 120.927 54.9899 120.412 55.2437C119.901 55.4975 119.3 55.6244 118.611 55.6244ZM126.855 52.488L126.844 50.4142H127.14L130.617 46.721H132.651L128.685 50.9255H128.418L126.855 52.488ZM125.293 55.4482V43.8119H126.992V55.4482H125.293ZM130.804 55.4482L127.679 51.3005L128.85 50.113L132.89 55.4482H130.804ZM145.022 55.6414C144.124 55.6376 143.357 55.4009 142.721 54.9312C142.084 54.4615 141.598 53.7778 141.261 52.8801C140.923 51.9823 140.755 50.9009 140.755 49.6357C140.755 48.3744 140.923 47.2967 141.261 46.4028C141.602 45.5088 142.09 44.827 142.727 44.3573C143.367 43.8876 144.132 43.6528 145.022 43.6528C145.912 43.6528 146.675 43.8895 147.312 44.363C147.948 44.8327 148.435 45.5145 148.772 46.4085C149.113 47.2986 149.283 48.3744 149.283 49.6357C149.283 50.9047 149.115 51.988 148.778 52.8857C148.441 53.7797 147.954 54.4634 147.317 54.9369C146.681 55.4066 145.916 55.6414 145.022 55.6414ZM145.022 54.1244C145.81 54.1244 146.425 53.7399 146.869 52.971C147.316 52.202 147.539 51.0903 147.539 49.6357C147.539 48.6698 147.437 47.8535 147.232 47.1869C147.031 46.5164 146.742 46.0088 146.363 45.6642C145.988 45.3157 145.541 45.1414 145.022 45.1414C144.238 45.1414 143.622 45.5278 143.175 46.3005C142.728 47.0732 142.503 48.185 142.499 49.6357C142.499 50.6054 142.6 51.4255 142.8 52.096C143.005 52.7626 143.295 53.2683 143.67 53.613C144.045 53.9539 144.495 54.1244 145.022 54.1244ZM156.63 55.6073C155.85 55.6073 155.153 55.4729 154.539 55.2039C153.929 54.935 153.446 54.5619 153.09 54.0846C152.738 53.6035 152.549 53.0467 152.522 52.4142H154.306C154.329 52.7588 154.444 53.0581 154.653 53.3119C154.865 53.5619 155.141 53.7551 155.482 53.8914C155.823 54.0278 156.202 54.096 156.619 54.096C157.077 54.096 157.482 54.0164 157.835 53.8573C158.191 53.6982 158.469 53.4767 158.67 53.1926C158.871 52.9047 158.971 52.5732 158.971 52.1982C158.971 51.8081 158.871 51.4653 158.67 51.1698C158.473 50.8706 158.183 50.6357 157.801 50.4653C157.422 50.2948 156.963 50.2096 156.426 50.2096H155.443V48.7778H156.426C156.857 48.7778 157.236 48.7001 157.562 48.5448C157.891 48.3895 158.149 48.1736 158.335 47.8971C158.52 47.6168 158.613 47.2892 158.613 46.9142C158.613 46.5543 158.532 46.2418 158.369 45.9767C158.21 45.7077 157.982 45.4975 157.687 45.346C157.395 45.1945 157.051 45.1187 156.653 45.1187C156.274 45.1187 155.92 45.1888 155.59 45.3289C155.265 45.4653 154.999 45.6623 154.795 45.9198C154.59 46.1736 154.48 46.4785 154.465 46.8346H152.766C152.785 46.2058 152.971 45.6528 153.323 45.1755C153.679 44.6982 154.149 44.3251 154.732 44.0562C155.316 43.7873 155.963 43.6528 156.676 43.6528C157.422 43.6528 158.066 43.7986 158.607 44.0903C159.153 44.3782 159.573 44.7626 159.869 45.2437C160.168 45.7248 160.316 46.2513 160.312 46.8232C160.316 47.4748 160.134 48.0278 159.766 48.4823C159.403 48.9369 158.918 49.2418 158.312 49.3971V49.488C159.085 49.6054 159.683 49.9123 160.107 50.4085C160.535 50.9047 160.748 51.5202 160.744 52.2551C160.748 52.8952 160.569 53.4691 160.21 53.9767C159.854 54.4842 159.367 54.8838 158.749 55.1755C158.132 55.4634 157.426 55.6073 156.63 55.6073Z"/>
</mask>
<path d="M85.9698 45.3232V43.8119H94.9755V45.3232H91.3448V55.4482H89.5948V45.3232H85.9698ZM97.2029 55.4482V46.721H98.845V48.1073H98.9359C99.095 47.6376 99.3753 47.2683 99.7768 46.9994C100.182 46.7267 100.64 46.5903 101.152 46.5903C101.258 46.5903 101.383 46.5941 101.527 46.6017C101.675 46.6092 101.79 46.6187 101.873 46.6301V48.2551C101.805 48.2361 101.684 48.2153 101.51 48.1926C101.336 48.166 101.161 48.1528 100.987 48.1528C100.586 48.1528 100.228 48.238 99.9132 48.4085C99.6026 48.5751 99.3563 48.8081 99.1745 49.1073C98.9927 49.4028 98.9018 49.7399 98.9018 50.1187V55.4482H97.2029ZM107.085 55.6414C106.532 55.6414 106.032 55.5392 105.585 55.3346C105.138 55.1263 104.784 54.8251 104.523 54.4312C104.265 54.0373 104.136 53.5543 104.136 52.9823C104.136 52.4899 104.231 52.0846 104.42 51.7664C104.61 51.4482 104.866 51.1963 105.187 51.0107C105.509 50.8251 105.869 50.685 106.267 50.5903C106.665 50.4956 107.07 50.4236 107.483 50.3744C108.006 50.3138 108.43 50.2645 108.756 50.2267C109.081 50.185 109.318 50.1187 109.466 50.0278C109.614 49.9369 109.687 49.7892 109.687 49.5846V49.5448C109.687 49.0486 109.547 48.6642 109.267 48.3914C108.991 48.1187 108.578 47.9823 108.028 47.9823C107.456 47.9823 107.006 48.1092 106.676 48.363C106.35 48.613 106.125 48.8914 106 49.1982L104.403 48.8346C104.593 48.3043 104.869 47.8763 105.233 47.5505C105.6 47.221 106.023 46.9823 106.5 46.8346C106.977 46.6831 107.479 46.6073 108.006 46.6073C108.354 46.6073 108.723 46.649 109.114 46.7323C109.508 46.8119 109.875 46.9596 110.216 47.1755C110.561 47.3914 110.843 47.7001 111.062 48.1017C111.282 48.4994 111.392 49.0164 111.392 49.6528V55.4482H109.733V54.2551H109.665C109.555 54.4748 109.39 54.6907 109.17 54.9028C108.951 55.1149 108.669 55.291 108.324 55.4312C107.979 55.5713 107.566 55.6414 107.085 55.6414ZM107.455 54.2778C107.924 54.2778 108.326 54.185 108.659 53.9994C108.996 53.8138 109.252 53.5713 109.426 53.2721C109.604 52.9691 109.693 52.6452 109.693 52.3005V51.1755C109.633 51.2361 109.515 51.2929 109.341 51.346C109.17 51.3952 108.975 51.4388 108.756 51.4767C108.536 51.5107 108.322 51.5429 108.114 51.5732C107.905 51.5998 107.731 51.6225 107.591 51.6414C107.261 51.6831 106.96 51.7532 106.687 51.8517C106.419 51.9501 106.203 52.0922 106.04 52.2778C105.881 52.4596 105.801 52.702 105.801 53.0051C105.801 53.4255 105.956 53.7437 106.267 53.9596C106.578 54.1717 106.973 54.2778 107.455 54.2778ZM118.611 55.6244C117.766 55.6244 117.039 55.4331 116.429 55.0505C115.823 54.6642 115.357 54.132 115.031 53.4539C114.706 52.7759 114.543 51.9994 114.543 51.1244C114.543 50.238 114.709 49.4558 115.043 48.7778C115.376 48.096 115.846 47.5638 116.452 47.1812C117.058 46.7986 117.772 46.6073 118.594 46.6073C119.257 46.6073 119.848 46.7304 120.367 46.9767C120.886 47.2191 121.304 47.56 121.622 47.9994C121.944 48.4388 122.136 48.952 122.196 49.5392H120.543C120.452 49.1301 120.244 48.7778 119.918 48.4823C119.596 48.1869 119.164 48.0392 118.622 48.0392C118.149 48.0392 117.734 48.1642 117.378 48.4142C117.026 48.6604 116.751 49.0126 116.554 49.471C116.357 49.9255 116.259 50.4634 116.259 51.0846C116.259 51.721 116.355 52.2702 116.548 52.7323C116.742 53.1945 117.014 53.5524 117.367 53.8062C117.723 54.06 118.141 54.1869 118.622 54.1869C118.944 54.1869 119.236 54.1282 119.497 54.0107C119.762 53.8895 119.984 53.7172 120.162 53.4937C120.344 53.2702 120.471 53.0013 120.543 52.6869H122.196C122.136 53.2513 121.952 53.7551 121.645 54.1982C121.338 54.6414 120.927 54.9899 120.412 55.2437C119.901 55.4975 119.3 55.6244 118.611 55.6244ZM126.855 52.488L126.844 50.4142H127.14L130.617 46.721H132.651L128.685 50.9255H128.418L126.855 52.488ZM125.293 55.4482V43.8119H126.992V55.4482H125.293ZM130.804 55.4482L127.679 51.3005L128.85 50.113L132.89 55.4482H130.804ZM145.022 55.6414C144.124 55.6376 143.357 55.4009 142.721 54.9312C142.084 54.4615 141.598 53.7778 141.261 52.8801C140.923 51.9823 140.755 50.9009 140.755 49.6357C140.755 48.3744 140.923 47.2967 141.261 46.4028C141.602 45.5088 142.09 44.827 142.727 44.3573C143.367 43.8876 144.132 43.6528 145.022 43.6528C145.912 43.6528 146.675 43.8895 147.312 44.363C147.948 44.8327 148.435 45.5145 148.772 46.4085C149.113 47.2986 149.283 48.3744 149.283 49.6357C149.283 50.9047 149.115 51.988 148.778 52.8857C148.441 53.7797 147.954 54.4634 147.317 54.9369C146.681 55.4066 145.916 55.6414 145.022 55.6414ZM145.022 54.1244C145.81 54.1244 146.425 53.7399 146.869 52.971C147.316 52.202 147.539 51.0903 147.539 49.6357C147.539 48.6698 147.437 47.8535 147.232 47.1869C147.031 46.5164 146.742 46.0088 146.363 45.6642C145.988 45.3157 145.541 45.1414 145.022 45.1414C144.238 45.1414 143.622 45.5278 143.175 46.3005C142.728 47.0732 142.503 48.185 142.499 49.6357C142.499 50.6054 142.6 51.4255 142.8 52.096C143.005 52.7626 143.295 53.2683 143.67 53.613C144.045 53.9539 144.495 54.1244 145.022 54.1244ZM156.63 55.6073C155.85 55.6073 155.153 55.4729 154.539 55.2039C153.929 54.935 153.446 54.5619 153.09 54.0846C152.738 53.6035 152.549 53.0467 152.522 52.4142H154.306C154.329 52.7588 154.444 53.0581 154.653 53.3119C154.865 53.5619 155.141 53.7551 155.482 53.8914C155.823 54.0278 156.202 54.096 156.619 54.096C157.077 54.096 157.482 54.0164 157.835 53.8573C158.191 53.6982 158.469 53.4767 158.67 53.1926C158.871 52.9047 158.971 52.5732 158.971 52.1982C158.971 51.8081 158.871 51.4653 158.67 51.1698C158.473 50.8706 158.183 50.6357 157.801 50.4653C157.422 50.2948 156.963 50.2096 156.426 50.2096H155.443V48.7778H156.426C156.857 48.7778 157.236 48.7001 157.562 48.5448C157.891 48.3895 158.149 48.1736 158.335 47.8971C158.52 47.6168 158.613 47.2892 158.613 46.9142C158.613 46.5543 158.532 46.2418 158.369 45.9767C158.21 45.7077 157.982 45.4975 157.687 45.346C157.395 45.1945 157.051 45.1187 156.653 45.1187C156.274 45.1187 155.92 45.1888 155.59 45.3289C155.265 45.4653 154.999 45.6623 154.795 45.9198C154.59 46.1736 154.48 46.4785 154.465 46.8346H152.766C152.785 46.2058 152.971 45.6528 153.323 45.1755C153.679 44.6982 154.149 44.3251 154.732 44.0562C155.316 43.7873 155.963 43.6528 156.676 43.6528C157.422 43.6528 158.066 43.7986 158.607 44.0903C159.153 44.3782 159.573 44.7626 159.869 45.2437C160.168 45.7248 160.316 46.2513 160.312 46.8232C160.316 47.4748 160.134 48.0278 159.766 48.4823C159.403 48.9369 158.918 49.2418 158.312 49.3971V49.488C159.085 49.6054 159.683 49.9123 160.107 50.4085C160.535 50.9047 160.748 51.5202 160.744 52.2551C160.748 52.8952 160.569 53.4691 160.21 53.9767C159.854 54.4842 159.367 54.8838 158.749 55.1755C158.132 55.4634 157.426 55.6073 156.63 55.6073Z" fill="white"/>
<path d="M85.9698 45.3232H84.9698V46.3232H85.9698V45.3232ZM85.9698 43.8119V42.8119H84.9698V43.8119H85.9698ZM94.9755 43.8119H95.9755V42.8119H94.9755V43.8119ZM94.9755 45.3232V46.3232H95.9755V45.3232H94.9755ZM91.3448 45.3232V44.3232H90.3448V45.3232H91.3448ZM91.3448 55.4482V56.4482H92.3448V55.4482H91.3448ZM89.5948 55.4482H88.5948V56.4482H89.5948V55.4482ZM89.5948 45.3232H90.5948V44.3232H89.5948V45.3232ZM86.9698 45.3232V43.8119H84.9698V45.3232H86.9698ZM85.9698 44.8119H94.9755V42.8119H85.9698V44.8119ZM93.9755 43.8119V45.3232H95.9755V43.8119H93.9755ZM94.9755 44.3232H91.3448V46.3232H94.9755V44.3232ZM90.3448 45.3232V55.4482H92.3448V45.3232H90.3448ZM91.3448 54.4482H89.5948V56.4482H91.3448V54.4482ZM90.5948 55.4482V45.3232H88.5948V55.4482H90.5948ZM89.5948 44.3232H85.9698V46.3232H89.5948V44.3232ZM97.2029 55.4482H96.2029V56.4482H97.2029V55.4482ZM97.2029 46.721V45.721H96.2029V46.721H97.2029ZM98.845 46.721H99.845V45.721H98.845V46.721ZM98.845 48.1073H97.845V49.1073H98.845V48.1073ZM98.9359 48.1073V49.1073H99.653L99.883 48.4281L98.9359 48.1073ZM99.7768 46.9994L100.333 47.8302L100.335 47.829L99.7768 46.9994ZM101.527 46.6017L101.474 47.6003L101.476 47.6003L101.527 46.6017ZM101.873 46.6301H102.873V45.7572L102.009 45.6392L101.873 46.6301ZM101.873 48.2551L101.606 49.2186L102.873 49.5707V48.2551H101.873ZM101.51 48.1926L101.359 49.1812L101.37 49.1828L101.38 49.1842L101.51 48.1926ZM99.9132 48.4085L100.386 49.2896L100.39 49.2876L99.9132 48.4085ZM99.1745 49.1073L100.026 49.6314L100.029 49.6266L99.1745 49.1073ZM98.9018 55.4482V56.4482H99.9018V55.4482H98.9018ZM98.2029 55.4482V46.721H96.2029V55.4482H98.2029ZM97.2029 47.721H98.845V45.721H97.2029V47.721ZM97.845 46.721V48.1073H99.845V46.721H97.845ZM98.845 49.1073H98.9359V47.1073H98.845V49.1073ZM99.883 48.4281C99.9735 48.1609 100.12 47.9733 100.333 47.8302L99.2203 46.1685C98.6309 46.5633 98.2164 47.1144 97.9887 47.7865L99.883 48.4281ZM100.335 47.829C100.567 47.6727 100.829 47.5903 101.152 47.5903V45.5903C100.451 45.5903 99.7968 45.7806 99.2185 46.1697L100.335 47.829ZM101.152 47.5903C101.235 47.5903 101.342 47.5933 101.474 47.6003L101.579 45.603C101.424 45.5948 101.28 45.5903 101.152 45.5903V47.5903ZM101.476 47.6003C101.613 47.6074 101.696 47.6151 101.738 47.6209L102.009 45.6392C101.884 45.6223 101.736 45.6111 101.578 45.603L101.476 47.6003ZM100.873 46.6301V48.2551H102.873V46.6301H100.873ZM102.141 47.2915C101.997 47.2515 101.812 47.2235 101.639 47.201L101.38 49.1842C101.459 49.1944 101.519 49.2034 101.562 49.2108C101.61 49.219 101.619 49.2223 101.606 49.2186L102.141 47.2915ZM101.66 47.2039C101.437 47.1699 101.212 47.1528 100.987 47.1528V49.1528C101.11 49.1528 101.234 49.1622 101.359 49.1812L101.66 47.2039ZM100.987 47.1528C100.44 47.1528 99.9145 47.2702 99.4365 47.5294L100.39 49.2876C100.541 49.2058 100.731 49.1528 100.987 49.1528V47.1528ZM99.4403 47.5273C98.9736 47.7778 98.5951 48.1352 98.3199 48.5881L100.029 49.6266C100.118 49.481 100.232 49.3725 100.386 49.2896L99.4403 47.5273ZM98.3229 48.5832C98.0352 49.0506 97.9018 49.5725 97.9018 50.1187H99.9018C99.9018 49.9074 99.9502 49.7549 100.026 49.6314L98.3229 48.5832ZM97.9018 50.1187V55.4482H99.9018V50.1187H97.9018ZM98.9018 54.4482H97.2029V56.4482H98.9018V54.4482ZM105.585 55.3346L105.163 56.241L105.169 56.2439L105.585 55.3346ZM104.523 54.4312L103.686 54.9785L103.689 54.984L104.523 54.4312ZM104.42 51.7664L105.28 52.2779L104.42 51.7664ZM105.187 51.0107L105.687 51.8771L105.187 51.0107ZM107.483 50.3744L107.368 49.381L107.365 49.3814L107.483 50.3744ZM108.756 50.2267L108.871 51.22L108.883 51.2186L108.756 50.2267ZM109.466 50.0278L109.99 50.8794V50.8794L109.466 50.0278ZM109.267 48.3914L108.565 49.1034L108.57 49.1081L109.267 48.3914ZM106.676 48.363L107.285 49.1563L107.286 49.1553L106.676 48.363ZM106 49.1982L105.778 50.1733L106.606 50.3618L106.926 49.5755L106 49.1982ZM104.403 48.8346L103.462 48.4983L103.083 49.5594L104.181 49.8096L104.403 48.8346ZM105.233 47.5505L105.9 48.2954L105.901 48.295L105.233 47.5505ZM106.5 46.8346L106.796 47.7899L106.803 47.7877L106.5 46.8346ZM109.114 46.7323L108.905 47.7103L108.916 47.7126L109.114 46.7323ZM110.216 47.1755L109.681 48.0203L109.685 48.023L110.216 47.1755ZM111.062 48.1017L110.185 48.5817L110.187 48.5852L111.062 48.1017ZM111.392 55.4482V56.4482H112.392V55.4482H111.392ZM109.733 55.4482H108.733V56.4482H109.733V55.4482ZM109.733 54.2551H110.733V53.2551H109.733V54.2551ZM109.665 54.2551V53.2551H109.047L108.77 53.8078L109.665 54.2551ZM109.17 54.9028L108.476 54.1834L109.17 54.9028ZM108.324 55.4312L107.947 54.5048L108.324 55.4312ZM108.659 53.9994L108.177 53.1234L108.173 53.1257L108.659 53.9994ZM109.426 53.2721L108.564 52.7656L108.562 52.7689L109.426 53.2721ZM109.693 51.1755H110.693V48.7613L108.986 50.4684L109.693 51.1755ZM109.341 51.346L109.618 52.3067L109.625 52.3047L109.632 52.3026L109.341 51.346ZM108.756 51.4767L108.909 52.4648L108.917 52.4635L108.926 52.4621L108.756 51.4767ZM108.114 51.5732L108.24 52.5652L108.249 52.5641L108.258 52.5628L108.114 51.5732ZM107.591 51.6414L107.716 52.6336L107.725 52.6324L107.591 51.6414ZM106.687 51.8517L106.348 50.9111L106.344 50.9126L106.687 51.8517ZM106.04 52.2778L105.288 51.6182L105.287 51.6193L106.04 52.2778ZM106.267 53.9596L105.696 54.7807L105.703 54.7854L106.267 53.9596ZM107.085 54.6414C106.658 54.6414 106.302 54.563 106.001 54.4253L105.169 56.2439C105.762 56.5153 106.407 56.6414 107.085 56.6414V54.6414ZM106.008 54.4282C105.72 54.2942 105.511 54.1121 105.356 53.8783L103.689 54.984C104.057 55.5382 104.556 55.9584 105.163 56.241L106.008 54.4282ZM105.36 53.8839C105.229 53.6848 105.136 53.4021 105.136 52.9823H103.136C103.136 53.7065 103.301 54.3898 103.686 54.9784L105.36 53.8839ZM105.136 52.9823C105.136 52.6123 105.208 52.3984 105.28 52.2779L103.561 51.2549C103.254 51.7708 103.136 52.3675 103.136 52.9823H105.136ZM105.28 52.2779C105.381 52.1074 105.513 51.9775 105.687 51.8771L104.688 50.1444C104.218 50.4152 103.838 50.789 103.561 51.2549L105.28 52.2779ZM105.687 51.8771C105.917 51.7443 106.186 51.6376 106.499 51.5631L106.035 49.6175C105.553 49.7323 105.102 49.906 104.688 50.1444L105.687 51.8771ZM106.499 51.5631C106.858 51.4774 107.226 51.4121 107.601 51.3673L107.365 49.3814C106.914 49.4351 106.471 49.5138 106.035 49.6175L106.499 51.5631ZM107.598 51.3677C108.121 51.3071 108.545 51.2579 108.871 51.22L108.64 49.2333C108.315 49.2712 107.89 49.3204 107.368 49.381L107.598 51.3677ZM108.883 51.2186C109.246 51.1721 109.656 51.0849 109.99 50.8794L108.942 49.1761C108.973 49.1572 108.971 49.1651 108.908 49.1827C108.849 49.1992 108.758 49.2182 108.629 49.2347L108.883 51.2186ZM109.99 50.8794C110.491 50.5713 110.687 50.0634 110.687 49.5846H108.687C108.687 49.5679 108.691 49.4958 108.738 49.4016C108.788 49.3002 108.865 49.2232 108.942 49.1761L109.99 50.8794ZM110.687 49.5846V49.5448H108.687V49.5846H110.687ZM110.687 49.5448C110.687 48.8553 110.487 48.1831 109.964 47.6747L108.57 49.1081C108.608 49.1452 108.687 49.242 108.687 49.5448H110.687ZM109.969 47.6795C109.44 47.1572 108.731 46.9823 108.028 46.9823V48.9823C108.425 48.9823 108.541 49.0802 108.565 49.1034L109.969 47.6795ZM108.028 46.9823C107.317 46.9823 106.626 47.1398 106.066 47.5707L107.286 49.1553C107.386 49.0787 107.596 48.9823 108.028 48.9823V46.9823ZM106.067 47.5697C105.634 47.9021 105.28 48.3147 105.074 48.8209L106.926 49.5755C106.97 49.4682 107.067 49.3239 107.285 49.1563L106.067 47.5697ZM106.222 48.2232L104.625 47.8596L104.181 49.8096L105.778 50.1733L106.222 48.2232ZM105.345 49.1709C105.487 48.7733 105.679 48.4939 105.9 48.2954L104.566 46.8057C104.06 47.2586 103.698 47.8353 103.462 48.4983L105.345 49.1709ZM105.901 48.295C106.159 48.0629 106.454 47.8955 106.796 47.7899L106.204 45.8793C105.591 46.0691 105.041 46.379 104.565 46.8061L105.901 48.295ZM106.803 47.7877C107.177 47.6688 107.576 47.6073 108.006 47.6073V45.6073C107.382 45.6073 106.777 45.6973 106.197 45.8815L106.803 47.7877ZM108.006 47.6073C108.275 47.6073 108.574 47.6395 108.905 47.7103L109.322 45.7544C108.873 45.6585 108.434 45.6073 108.006 45.6073V47.6073ZM108.916 47.7126C109.189 47.7678 109.443 47.8695 109.681 48.0203L110.751 46.3307C110.307 46.0497 109.826 45.8559 109.312 45.7521L108.916 47.7126ZM109.685 48.023C109.867 48.1371 110.037 48.3111 110.185 48.5817L111.94 47.6216C111.648 47.0892 111.254 46.6457 110.747 46.328L109.685 48.023ZM110.187 48.5852C110.299 48.7874 110.392 49.1214 110.392 49.6528H112.392C112.392 48.9114 112.266 48.2114 111.938 47.6181L110.187 48.5852ZM110.392 49.6528V55.4482H112.392V49.6528H110.392ZM111.392 54.4482H109.733V56.4482H111.392V54.4482ZM110.733 55.4482V54.2551H108.733V55.4482H110.733ZM109.733 53.2551H109.665V55.2551H109.733V53.2551ZM108.77 53.8078C108.722 53.9049 108.633 54.0316 108.476 54.1834L109.865 55.6222C110.147 55.3497 110.388 55.0446 110.559 54.7023L108.77 53.8078ZM108.476 54.1834C108.366 54.2898 108.199 54.4025 107.947 54.5048L108.7 56.3576C109.138 56.1795 109.536 55.94 109.865 55.6222L108.476 54.1834ZM107.947 54.5048C107.752 54.5844 107.473 54.6414 107.085 54.6414V56.6414C107.659 56.6414 108.207 56.5583 108.7 56.3576L107.947 54.5048ZM107.455 55.2778C108.056 55.2778 108.633 55.1586 109.146 54.8731L108.173 53.1257C108.019 53.2114 107.793 53.2778 107.455 53.2778V55.2778ZM109.141 54.8754C109.619 54.6124 110.015 54.2481 110.29 53.7753L108.562 52.7689C108.489 52.8946 108.373 53.0151 108.177 53.1234L109.141 54.8754ZM110.288 53.7787C110.555 53.3252 110.693 52.827 110.693 52.3005H108.693C108.693 52.4635 108.654 52.6129 108.564 52.7656L110.288 53.7787ZM110.693 52.3005V51.1755H108.693V52.3005H110.693ZM108.986 50.4684C109.029 50.4259 109.065 50.3994 109.086 50.3855C109.108 50.3712 109.122 50.3644 109.124 50.3634C109.126 50.3623 109.122 50.3646 109.108 50.3697C109.095 50.3746 109.076 50.3813 109.05 50.3893L109.632 52.3026C109.824 52.2441 110.152 52.1308 110.4 51.8826L108.986 50.4684ZM109.063 50.3853C108.936 50.4221 108.778 50.4581 108.586 50.4912L108.926 52.4621C109.173 52.4195 109.405 52.3683 109.618 52.3067L109.063 50.3853ZM108.602 50.4885C108.386 50.5221 108.175 50.5538 107.97 50.5837L108.258 52.5628C108.469 52.532 108.686 52.4994 108.909 52.4648L108.602 50.4885ZM107.987 50.5812C107.778 50.6079 107.601 50.631 107.457 50.6504L107.725 52.6324C107.861 52.6139 108.033 52.5916 108.24 52.5652L107.987 50.5812ZM107.465 50.6493C107.073 50.6989 106.699 50.7843 106.348 50.9111L107.027 52.7922C107.221 52.722 107.45 52.6673 107.716 52.6335L107.465 50.6493ZM106.344 50.9126C105.943 51.0594 105.578 51.288 105.288 51.6182L106.791 52.9374C106.827 52.8964 106.894 52.8409 107.031 52.7907L106.344 50.9126ZM105.287 51.6193C104.931 52.0262 104.801 52.5235 104.801 53.0051H106.801C106.801 52.9401 106.81 52.9115 106.811 52.9077C106.811 52.9061 106.811 52.9093 106.807 52.9158C106.803 52.9223 106.798 52.9295 106.792 52.9363L105.287 51.6193ZM104.801 53.0051C104.801 53.7104 105.084 54.3548 105.696 54.7807L106.838 53.1385C106.823 53.1282 106.818 53.122 106.817 53.1211C106.816 53.1205 106.816 53.1209 106.816 53.1204C106.816 53.1196 106.812 53.1125 106.809 53.0955C106.805 53.078 106.801 53.0488 106.801 53.0051H104.801ZM105.703 54.7854C106.221 55.1389 106.828 55.2778 107.455 55.2778V53.2778C107.119 53.2778 106.935 53.2045 106.831 53.1338L105.703 54.7854ZM116.429 55.0505L115.892 55.8938L115.898 55.8976L116.429 55.0505ZM115.043 48.7778L115.94 49.219L115.941 49.217L115.043 48.7778ZM116.452 47.1812L115.918 46.3356L116.452 47.1812ZM120.367 46.9767L119.938 47.8801L119.943 47.8827L120.367 46.9767ZM121.622 47.9994L120.812 48.5859L120.816 48.5904L121.622 47.9994ZM122.196 49.5392V50.5392H123.305L123.191 49.4365L122.196 49.5392ZM120.543 49.5392L119.567 49.7561L119.741 50.5392H120.543V49.5392ZM119.918 48.4823L119.242 49.2191L119.246 49.2231L119.918 48.4823ZM117.378 48.4142L117.951 49.2338L117.953 49.2326L117.378 48.4142ZM116.554 49.471L117.472 49.8686L117.473 49.8658L116.554 49.471ZM116.548 52.7323L117.471 52.3466L116.548 52.7323ZM117.367 53.8062L116.782 54.6176L116.786 54.6205L117.367 53.8062ZM119.497 54.0107L119.907 54.9229L119.913 54.9202L119.497 54.0107ZM120.162 53.4937L119.386 52.8626L119.38 52.8706L120.162 53.4937ZM120.543 52.6869V51.6869H119.746L119.568 52.4637L120.543 52.6869ZM122.196 52.6869L123.19 52.7936L123.309 51.6869H122.196V52.6869ZM121.645 54.1982L122.467 54.7675L121.645 54.1982ZM120.412 55.2437L119.97 54.3466L119.968 54.3479L120.412 55.2437ZM118.611 54.6244C117.921 54.6244 117.385 54.4698 116.961 54.2034L115.898 55.8976C116.693 56.3963 117.611 56.6244 118.611 56.6244V54.6244ZM116.967 54.2073C116.525 53.9259 116.182 53.5392 115.933 53.0209L114.13 53.887C114.533 54.7248 115.121 55.4024 115.892 55.8937L116.967 54.2073ZM115.933 53.0209C115.682 52.4983 115.543 51.8738 115.543 51.1244H113.543C113.543 52.1249 113.73 53.0534 114.13 53.887L115.933 53.0209ZM115.543 51.1244C115.543 50.3646 115.685 49.7379 115.94 49.219L114.145 48.3366C113.734 49.1738 113.543 50.1114 113.543 51.1244H115.543ZM115.941 49.217C116.198 48.6916 116.546 48.3044 116.986 48.0268L115.918 46.3356C115.146 46.8231 114.554 47.5003 114.144 48.3386L115.941 49.217ZM116.986 48.0268C117.41 47.7592 117.932 47.6073 118.594 47.6073V45.6073C117.611 45.6073 116.706 45.838 115.918 46.3356L116.986 48.0268ZM118.594 47.6073C119.131 47.6073 119.572 47.7066 119.938 47.8801L120.795 46.0732C120.123 45.7543 119.382 45.6073 118.594 45.6073V47.6073ZM119.943 47.8827C120.317 48.0573 120.599 48.2919 120.812 48.5859L122.432 47.4129C122.009 46.8281 121.454 46.3808 120.79 46.0706L119.943 47.8827ZM120.816 48.5904C121.024 48.8748 121.158 49.2161 121.201 49.6418L123.191 49.4365C123.114 48.688 122.865 48.0028 122.429 47.4083L120.816 48.5904ZM122.196 48.5392H120.543V50.5392H122.196V48.5392ZM121.519 49.3222C121.381 48.7009 121.06 48.1687 120.59 47.7416L119.246 49.2231C119.427 49.3869 119.523 49.5592 119.567 49.7561L121.519 49.3222ZM120.594 47.7455C120.046 47.2427 119.352 47.0392 118.622 47.0392V49.0392C118.976 49.0392 119.146 49.1311 119.242 49.2191L120.594 47.7455ZM118.622 47.0392C117.962 47.0392 117.343 47.2171 116.803 47.5957L117.953 49.2326C118.125 49.1113 118.335 49.0392 118.622 49.0392V47.0392ZM116.805 47.5945C116.277 47.9636 115.894 48.4747 115.635 49.0761L117.473 49.8658C117.608 49.5505 117.774 49.3572 117.951 49.2338L116.805 47.5945ZM115.637 49.0734C115.373 49.681 115.259 50.3602 115.259 51.0846H117.259C117.259 50.5666 117.341 50.1701 117.472 49.8686L115.637 49.0734ZM115.259 51.0846C115.259 51.819 115.37 52.5055 115.626 53.118L117.471 52.3466C117.341 52.0349 117.259 51.623 117.259 51.0846H115.259ZM115.626 53.118C115.879 53.7239 116.258 54.2401 116.782 54.6176L117.951 52.9948C117.771 52.8647 117.604 52.665 117.471 52.3466L115.626 53.118ZM116.786 54.6205C117.329 55.0072 117.955 55.1869 118.622 55.1869V53.1869C118.327 53.1869 118.117 53.1128 117.947 52.9919L116.786 54.6205ZM118.622 55.1869C119.068 55.1869 119.502 55.105 119.907 54.9229L119.087 53.0986C118.97 53.1513 118.821 53.1869 118.622 53.1869V55.1869ZM119.913 54.9202C120.318 54.735 120.666 54.4658 120.944 54.1168L119.38 52.8706C119.302 52.9686 119.207 53.044 119.082 53.1013L119.913 54.9202ZM120.938 54.1248C121.227 53.7688 121.415 53.3558 121.518 52.91L119.568 52.4637C119.526 52.6467 119.46 52.7716 119.386 52.8626L120.938 54.1248ZM120.543 53.6869H122.196V51.6869H120.543V53.6869ZM121.202 52.5801C121.158 52.9875 121.029 53.3306 120.823 53.629L122.467 54.7675C122.874 54.1796 123.113 53.515 123.19 52.7936L121.202 52.5801ZM120.823 53.629C120.619 53.9232 120.343 54.1629 119.97 54.3466L120.854 56.1407C121.511 55.8169 122.057 55.3596 122.467 54.7675L120.823 53.629ZM119.968 54.3479C119.62 54.5204 119.178 54.6244 118.611 54.6244V56.6244C119.423 56.6244 120.181 56.4746 120.857 56.1394L119.968 54.3479ZM126.855 52.488L125.855 52.4935L125.869 54.8891L127.563 53.1951L126.855 52.488ZM126.844 50.4142V49.4142H125.839L125.844 50.4196L126.844 50.4142ZM127.14 50.4142V51.4142H127.571L127.868 51.0997L127.14 50.4142ZM130.617 46.721V45.721H130.185L129.889 46.0355L130.617 46.721ZM132.651 46.721L133.378 47.4071L134.969 45.721H132.651V46.721ZM128.685 50.9255V51.9255H129.116L129.412 51.6117L128.685 50.9255ZM128.418 50.9255V49.9255H128.004L127.711 50.2184L128.418 50.9255ZM125.293 55.4482H124.293V56.4482H125.293V55.4482ZM125.293 43.8119V42.8119H124.293V43.8119H125.293ZM126.992 43.8119H127.992V42.8119H126.992V43.8119ZM126.992 55.4482V56.4482H127.992V55.4482H126.992ZM130.804 55.4482L130.006 56.05L130.306 56.4482H130.804V55.4482ZM127.679 51.3005L126.967 50.5985L126.361 51.2131L126.881 51.9023L127.679 51.3005ZM128.85 50.113L129.647 49.5094L128.949 48.5877L128.138 49.411L128.85 50.113ZM132.89 55.4482V56.4482H134.901L133.687 54.8446L132.89 55.4482ZM127.855 52.4825L127.844 50.4087L125.844 50.4196L125.855 52.4935L127.855 52.4825ZM126.844 51.4142H127.14V49.4142H126.844V51.4142ZM127.868 51.0997L131.345 47.4065L129.889 46.0355L126.411 49.7286L127.868 51.0997ZM130.617 47.721H132.651V45.721H130.617V47.721ZM131.923 46.0348L127.958 50.2394L129.412 51.6117L133.378 47.4071L131.923 46.0348ZM128.685 49.9255H128.418V51.9255H128.685V49.9255ZM127.711 50.2184L126.148 51.7809L127.563 53.1951L129.125 51.6326L127.711 50.2184ZM126.293 55.4482V43.8119H124.293V55.4482H126.293ZM125.293 44.8119H126.992V42.8119H125.293V44.8119ZM125.992 43.8119V55.4482H127.992V43.8119H125.992ZM126.992 54.4482H125.293V56.4482H126.992V54.4482ZM131.603 54.8465L128.478 50.6988L126.881 51.9023L130.006 56.05L131.603 54.8465ZM128.391 52.0025L129.562 50.815L128.138 49.411L126.967 50.5985L128.391 52.0025ZM128.053 50.7167L132.092 56.0519L133.687 54.8446L129.647 49.5094L128.053 50.7167ZM132.89 54.4482H130.804V56.4482H132.89V54.4482ZM145.022 55.6414L145.018 56.6414H145.022V55.6414ZM141.261 52.8801L142.197 52.5285L141.261 52.8801ZM141.261 46.4028L140.326 46.0465L140.325 46.0499L141.261 46.4028ZM142.727 44.3573L142.135 43.5511L142.133 43.5528L142.727 44.3573ZM147.312 44.363L146.715 45.1653L146.718 45.1676L147.312 44.363ZM148.772 46.4085L147.836 46.7613L147.838 46.7661L148.772 46.4085ZM148.778 52.8857L149.713 53.2386L149.714 53.2373L148.778 52.8857ZM147.317 54.9369L147.911 55.7415L147.914 55.7392L147.317 54.9369ZM146.869 52.971L146.004 52.4684L146.002 52.4716L146.869 52.971ZM147.232 47.1869L146.274 47.4737L146.276 47.4802L147.232 47.1869ZM146.363 45.6642L145.682 46.3967L145.69 46.4038L146.363 45.6642ZM143.175 46.3005L142.31 45.7998L143.175 46.3005ZM142.499 49.6357L141.499 49.6331V49.6357H142.499ZM142.8 52.096L141.842 52.3828L141.844 52.3893L142.8 52.096ZM143.67 53.613L142.993 54.3493L142.997 54.353L143.67 53.613ZM145.026 54.6414C144.311 54.6384 143.758 54.4536 143.315 54.1266L142.127 55.7358C142.957 56.3482 143.938 56.6369 145.018 56.6414L145.026 54.6414ZM143.315 54.1266C142.864 53.794 142.481 53.2841 142.197 52.5285L140.324 53.2316C140.715 54.2715 141.305 55.129 142.127 55.7358L143.315 54.1266ZM142.197 52.5285C141.913 51.7727 141.755 50.817 141.755 49.6357H139.755C139.755 50.9848 139.934 52.192 140.324 53.2316L142.197 52.5285ZM141.755 49.6357C141.755 48.4585 141.913 47.5071 142.196 46.7556L140.325 46.0499C139.934 47.0863 139.755 48.2903 139.755 49.6357H141.755ZM142.195 46.7591C142.482 46.0063 142.868 45.496 143.32 45.1619L142.133 43.5528C141.313 44.158 140.721 45.0114 140.326 46.0465L142.195 46.7591ZM143.318 45.1636C143.766 44.8348 144.318 44.6528 145.022 44.6528V42.6528C143.946 42.6528 142.967 42.9404 142.135 43.5511L143.318 45.1636ZM145.022 44.6528C145.725 44.6528 146.272 44.8357 146.715 45.1653L147.909 43.5607C147.079 42.9433 146.1 42.6528 145.022 42.6528V44.6528ZM146.718 45.1676C147.17 45.5009 147.553 46.0099 147.836 46.7613L149.708 46.0556C149.317 45.0192 148.727 44.1645 147.906 43.5584L146.718 45.1676ZM147.838 46.7661C148.124 47.5118 148.283 48.4593 148.283 49.6357H150.283C150.283 48.2894 150.102 47.0855 149.706 46.0508L147.838 46.7661ZM148.283 49.6357C148.283 50.8212 148.125 51.7787 147.841 52.5342L149.714 53.2373C150.104 52.1974 150.283 50.9881 150.283 49.6357H148.283ZM147.842 52.5329C147.558 53.2847 147.174 53.7969 146.72 54.1346L147.914 55.7392C148.733 55.1299 149.323 54.2747 149.713 53.2386L147.842 52.5329ZM146.724 54.1323C146.281 54.4588 145.731 54.6414 145.022 54.6414V56.6414C146.101 56.6414 147.081 56.3543 147.911 55.7415L146.724 54.1323ZM145.022 55.1244C146.219 55.1244 147.14 54.5018 147.735 53.4703L146.002 52.4716C145.71 52.978 145.401 53.1244 145.022 53.1244V55.1244ZM147.733 53.4735C148.308 52.4839 148.539 51.1665 148.539 49.6357H146.539C146.539 51.0141 146.323 51.9202 146.004 52.4684L147.733 53.4735ZM148.539 49.6357C148.539 48.6057 148.431 47.6839 148.188 46.8936L146.276 47.4802C146.443 48.0231 146.539 48.734 146.539 49.6357H148.539ZM148.19 46.9C147.956 46.1169 147.59 45.4284 147.036 44.9245L145.69 46.4038C145.894 46.5893 146.107 46.9159 146.274 47.4737L148.19 46.9ZM147.044 44.9316C146.481 44.4086 145.79 44.1414 145.022 44.1414V46.1414C145.292 46.1414 145.495 46.2227 145.682 46.3967L147.044 44.9316ZM145.022 44.1414C143.825 44.1414 142.906 44.7694 142.31 45.7998L144.041 46.8012C144.339 46.2861 144.65 46.1414 145.022 46.1414V44.1414ZM142.31 45.7998C141.737 46.7907 141.503 48.1054 141.499 49.6331L143.499 49.6384C143.503 48.2645 143.72 47.3557 144.041 46.8012L142.31 45.7998ZM141.499 49.6357C141.499 50.6681 141.605 51.5912 141.842 52.3828L143.758 51.8091C143.594 51.2598 143.499 50.5428 143.499 49.6357H141.499ZM141.844 52.3893C142.083 53.1657 142.448 53.8479 142.993 54.3492L144.346 52.8768C144.142 52.6887 143.927 52.3596 143.756 51.8026L141.844 52.3893ZM142.997 54.353C143.564 54.8682 144.257 55.1244 145.022 55.1244V53.1244C144.734 53.1244 144.526 53.0396 144.342 52.8731L142.997 54.353ZM154.539 55.2039L154.136 56.1189L154.138 56.1198L154.539 55.2039ZM153.09 54.0846L152.283 54.6754L152.289 54.6826L153.09 54.0846ZM152.522 52.4142V51.4142H151.479L151.523 52.456L152.522 52.4142ZM154.306 52.4142L155.304 52.3484L155.242 51.4142H154.306V52.4142ZM154.653 53.3119L153.88 53.9464L153.885 53.9527L153.89 53.9589L154.653 53.3119ZM155.482 53.8914L155.854 52.9629L155.482 53.8914ZM157.835 53.8573L157.427 52.9443L157.423 52.946L157.835 53.8573ZM158.67 53.1926L159.487 53.7697L159.49 53.7646L158.67 53.1926ZM158.67 51.1698L157.835 51.7196L157.839 51.7258L157.843 51.7319L158.67 51.1698ZM157.801 50.4653L157.39 51.3772L157.394 51.3787L157.801 50.4653ZM155.443 50.2096H154.443V51.2096H155.443V50.2096ZM155.443 48.7778V47.7778H154.443V48.7778H155.443ZM157.562 48.5448L157.136 47.6402L157.132 47.6422L157.562 48.5448ZM158.335 47.8971L159.165 48.4544L159.168 48.4492L158.335 47.8971ZM158.369 45.9767L157.508 46.4858L157.512 46.493L157.517 46.5001L158.369 45.9767ZM157.687 45.346L157.226 46.2334L157.231 46.2358L157.687 45.346ZM155.59 45.3289L155.976 46.2514L155.982 46.2492L155.59 45.3289ZM154.795 45.9198L155.573 46.5474L155.578 46.5417L154.795 45.9198ZM154.465 46.8346V47.8346H155.424L155.464 46.8771L154.465 46.8346ZM152.766 46.8346L151.767 46.8045L151.736 47.8346H152.766V46.8346ZM153.323 45.1755L152.522 44.5775L152.519 44.5817L153.323 45.1755ZM154.732 44.0562L155.151 44.9643L154.732 44.0562ZM158.607 44.0903L158.133 44.9708L158.141 44.9747L158.607 44.0903ZM159.869 45.2437L159.017 45.7671L159.02 45.7719L159.869 45.2437ZM160.312 46.8232L159.312 46.8166L159.312 46.8291L160.312 46.8232ZM159.766 48.4823L158.989 47.8537L158.986 47.8576L159.766 48.4823ZM158.312 49.3971L158.064 48.4284L157.312 48.621V49.3971H158.312ZM158.312 49.488H157.312V50.3475L158.162 50.4767L158.312 49.488ZM160.107 50.4085L159.347 51.0583L159.35 51.0616L160.107 50.4085ZM160.744 52.2551L159.744 52.2499L159.744 52.261L160.744 52.2551ZM160.21 53.9767L159.394 53.3983L159.391 53.4024L160.21 53.9767ZM158.749 55.1755L159.172 56.0819L159.177 56.0797L158.749 55.1755ZM156.63 54.6073C155.965 54.6073 155.409 54.4931 154.941 54.288L154.138 56.1198C154.897 56.4526 155.734 56.6073 156.63 56.6073V54.6073ZM154.943 54.2889C154.471 54.0811 154.133 53.8098 153.892 53.4866L152.289 54.6826C152.76 55.314 153.387 55.7889 154.136 56.1189L154.943 54.2889ZM153.897 53.4938C153.669 53.1827 153.54 52.8197 153.521 52.3723L151.523 52.456C151.557 53.2737 151.807 54.0244 152.284 54.6754L153.897 53.4938ZM152.522 53.4142H154.306V51.4142H152.522V53.4142ZM153.308 52.4799C153.344 53.0215 153.532 53.5224 153.88 53.9464L155.426 52.6774C155.357 52.5937 155.314 52.4962 155.304 52.3484L153.308 52.4799ZM153.89 53.9589C154.22 54.3475 154.637 54.6304 155.111 54.8199L155.854 52.9629C155.646 52.8798 155.51 52.7763 155.415 52.6649L153.89 53.9589ZM155.111 54.8199C155.585 55.0095 156.092 55.096 156.619 55.096V53.096C156.312 53.096 156.062 53.0461 155.854 52.9629L155.111 54.8199ZM156.619 55.096C157.193 55.096 157.743 54.996 158.246 54.7687L157.423 52.946C157.222 53.0368 156.961 53.096 156.619 53.096V55.096ZM158.243 54.7703C158.742 54.5471 159.17 54.2176 159.487 53.7697L157.853 52.6154C157.768 52.7357 157.639 52.8494 157.427 52.9443L158.243 54.7703ZM159.49 53.7646C159.816 53.2972 159.971 52.763 159.971 52.1982H157.971C157.971 52.3835 157.925 52.5122 157.85 52.6205L159.49 53.7646ZM159.971 52.1982C159.971 51.627 159.821 51.0843 159.497 50.6078L157.843 51.7319C157.92 51.8462 157.971 51.9892 157.971 52.1982H159.971ZM159.505 50.62C159.186 50.1357 158.735 49.7867 158.208 49.5518L157.394 51.3787C157.632 51.4848 157.759 51.6055 157.835 51.7196L159.505 50.62ZM158.211 49.5534C157.671 49.3104 157.065 49.2096 156.426 49.2096V51.2096C156.862 51.2096 157.172 51.2793 157.39 51.3772L158.211 49.5534ZM156.426 49.2096H155.443V51.2096H156.426V49.2096ZM156.443 50.2096V48.7778H154.443V50.2096H156.443ZM155.443 49.7778H156.426V47.7778H155.443V49.7778ZM156.426 49.7778C156.977 49.7778 157.508 49.6783 157.992 49.4475L157.132 47.6422C156.964 47.722 156.737 47.7778 156.426 47.7778V49.7778ZM157.988 49.4494C158.465 49.2245 158.869 48.895 159.165 48.4544L157.504 47.3398C157.429 47.4522 157.317 47.5546 157.136 47.6403L157.988 49.4494ZM159.168 48.4492C159.475 47.9866 159.613 47.462 159.613 46.9142H157.613C157.613 47.1163 157.566 47.247 157.501 47.345L159.168 48.4492ZM159.613 46.9142C159.613 46.3989 159.495 45.8992 159.221 45.4532L157.517 46.5001C157.568 46.5845 157.613 46.7097 157.613 46.9142H159.613ZM159.229 45.4675C158.968 45.0257 158.596 44.6882 158.143 44.4562L157.231 46.2358C157.369 46.3068 157.451 46.3897 157.508 46.4858L159.229 45.4675ZM158.148 44.4586C157.687 44.2191 157.178 44.1187 156.653 44.1187V46.1187C156.923 46.1187 157.104 46.1698 157.226 46.2334L158.148 44.4586ZM156.653 44.1187C156.147 44.1187 155.659 44.2129 155.199 44.4087L155.982 46.2492C156.18 46.1646 156.401 46.1187 156.653 46.1187V44.1187ZM155.204 44.4065C154.735 44.603 154.329 44.8987 154.012 45.298L155.578 46.5417C155.67 46.4259 155.794 46.3276 155.976 46.2514L155.204 44.4065ZM154.016 45.2923C153.665 45.7282 153.49 46.2435 153.466 46.7921L155.464 46.8771C155.471 46.7136 155.516 46.619 155.573 46.5474L154.016 45.2923ZM154.465 45.8346H152.766V47.8346H154.465V45.8346ZM153.766 46.8647C153.779 46.4263 153.904 46.0728 154.128 45.7694L152.519 44.5817C152.038 45.2328 151.792 45.9853 151.767 46.8045L153.766 46.8647ZM154.125 45.7735C154.373 45.4403 154.707 45.1691 155.151 44.9643L154.314 43.1481C153.591 43.4812 152.985 43.9562 152.522 44.5776L154.125 45.7735ZM155.151 44.9643C155.589 44.7622 156.092 44.6528 156.676 44.6528V42.6528C155.835 42.6528 155.042 42.8123 154.314 43.1481L155.151 44.9643ZM156.676 44.6528C157.291 44.6528 157.765 44.7726 158.133 44.9708L159.081 43.2098C158.366 42.8246 157.552 42.6528 156.676 42.6528V44.6528ZM158.141 44.9747C158.543 45.1869 158.823 45.4526 159.017 45.767L160.721 44.7203C160.323 44.0726 159.763 43.5694 159.074 43.2059L158.141 44.9747ZM159.02 45.7719C159.218 46.0909 159.314 46.4317 159.312 46.8166L161.312 46.8299C161.317 46.0709 161.118 45.3586 160.718 44.7155L159.02 45.7719ZM159.312 46.8291C159.315 47.2779 159.194 47.5994 158.989 47.8537L160.544 49.111C161.073 48.4562 161.317 47.6716 161.312 46.8174L159.312 46.8291ZM158.986 47.8576C158.768 48.1298 158.476 48.3227 158.064 48.4284L158.56 50.3658C159.36 50.1609 160.038 49.744 160.547 49.107L158.986 47.8576ZM157.312 49.3971V49.488H159.312V49.3971H157.312ZM158.162 50.4767C158.746 50.5655 159.109 50.7791 159.347 51.0583L160.867 49.7586C160.258 49.0455 159.423 48.6454 158.462 48.4994L158.162 50.4767ZM159.35 51.0616C159.601 51.3525 159.746 51.7252 159.744 52.2499L161.744 52.2602C161.749 51.3152 161.47 50.4569 160.865 49.7553L159.35 51.0616ZM159.744 52.261C159.746 52.6984 159.629 53.0666 159.394 53.3983L161.025 54.555C161.51 53.8715 161.749 53.0921 161.744 52.2491L159.744 52.261ZM159.391 53.4024C159.144 53.7538 158.799 54.0461 158.322 54.2713L159.177 56.0797C159.935 55.7216 160.563 55.2147 161.028 54.5509L159.391 53.4024ZM158.327 54.2692C157.862 54.4859 157.304 54.6073 156.63 54.6073V56.6073C157.547 56.6073 158.402 56.4409 159.172 56.0818L158.327 54.2692Z" fill="black" mask="url(#path-3-outside-1_1096_4925)"/>
<rect x="57.0191" y="71.7129" width="137.962" height="21.9685" rx="10.9842" fill="#D9D9D9" stroke="black"/>
<path d="M80.4091 84.3146C80.4091 87.2403 78.0295 89.6146 75.0909 89.6146C72.1523 89.6146 69.7727 87.2403 69.7727 84.3146C69.7727 81.389 72.1523 79.0146 75.0909 79.0146C78.0295 79.0146 80.4091 81.389 80.4091 84.3146Z" fill="#5A4C4C" stroke="black"/>
<path d="M179.318 84.3146C179.318 87.2403 176.939 89.6146 174 89.6146C171.061 89.6146 168.682 87.2403 168.682 84.3146C168.682 81.389 171.061 79.0146 174 79.0146C176.939 79.0146 179.318 81.389 179.318 84.3146Z" fill="#5A4C4C" stroke="black"/>
<rect x="89.4178" y="75.5664" width="70.2553" height="14.2611" fill="#5A4C4C" stroke="black"/>
<path d="M52.4816 150.782L59.4677 126.407L189.623 126.407L196.609 150.782H52.4816Z" fill="url(#paint1_linear_1096_4925)" stroke="black"/>
</g>
<defs>
<filter id="filter0_d_1096_4925" x="0" y="0.282227" width="260" height="165" filterUnits="userSpaceOnUse" color-interpolation-filters="sRGB">
<feFlood flood-opacity="0" result="BackgroundImageFix"/>
<feColorMatrix in="SourceAlpha" type="matrix" values="0 0 0 0 0 0 0 0 0 0 0 0 0 0 0 0 0 0 127 0" result="hardAlpha"/>
<feOffset dx="4" dy="4"/>
<feGaussianBlur stdDeviation="5"/>
<feComposite in2="hardAlpha" operator="out"/>
<feColorMatrix type="matrix" values="0 0 0 0 1 0 0 0 0 1 0 0 0 0 1 0 0 0 0.25 0"/>
<feBlend mode="normal" in2="BackgroundImageFix" result="effect1_dropShadow_1096_4925"/>
<feBlend mode="normal" in="SourceGraphic" in2="effect1_dropShadow_1096_4925" result="shape"/>
</filter>
<linearGradient id="paint0_linear_1096_4925" x1="126" y1="24.2295" x2="191.098" y2="118.388" gradientUnits="userSpaceOnUse">
<stop stop-color="#727272"/>
<stop offset="1" stop-color="#D8D8D8"/>
</linearGradient>
<linearGradient id="paint1_linear_1096_4925" x1="68.8785" y1="151.282" x2="197.265" y2="138.516" gradientUnits="userSpaceOnUse">
<stop stop-color="#4E926D"/>
<stop offset="1" stop-color="#21490F"/>
</linearGradient>
</defs>
</svg>
