<svg width="260" height="166" viewBox="0 0 260 166" fill="none" xmlns="http://www.w3.org/2000/svg">
<g filter="url(#filter0_d_1029_1767)">
<rect x="6.6037" y="6.78223" width="238.108" height="144" fill="#151515" stroke="white"/>
<rect x="27.8831" y="24.7295" width="195.549" height="92.9672" rx="9.5" fill="url(#paint0_linear_1029_1767)" stroke="black"/>
<mask id="path-3-outside-1_1029_1767" maskUnits="userSpaceOnUse" x="84.0743" y="42.4482" width="77" height="15" fill="black">
<rect fill="white" x="84.0743" y="42.4482" width="77" height="15"/>
<path d="M85.7789 45.3232V43.8119H94.7845V45.3232H91.1539V55.4482H89.4039V45.3232H85.7789ZM97.012 55.4482V46.721H98.654V48.1073H98.7449C98.904 47.6376 99.1843 47.2683 99.5859 46.9994C99.9912 46.7267 100.449 46.5903 100.961 46.5903C101.067 46.5903 101.192 46.5941 101.336 46.6017C101.484 46.6092 101.599 46.6187 101.682 46.6301V48.2551C101.614 48.2361 101.493 48.2153 101.319 48.1926C101.145 48.166 100.97 48.1528 100.796 48.1528C100.395 48.1528 100.037 48.238 99.7222 48.4085C99.4116 48.5751 99.1654 48.8081 98.9836 49.1073C98.8018 49.4028 98.7109 49.7399 98.7109 50.1187V55.4482H97.012ZM106.894 55.6414C106.341 55.6414 105.841 55.5392 105.394 55.3346C104.947 55.1263 104.593 54.8251 104.332 54.4312C104.074 54.0373 103.945 53.5543 103.945 52.9823C103.945 52.4899 104.04 52.0846 104.229 51.7664C104.419 51.4482 104.675 51.1963 104.997 51.0107C105.319 50.8251 105.678 50.685 106.076 50.5903C106.474 50.4956 106.879 50.4236 107.292 50.3744C107.815 50.3138 108.239 50.2645 108.565 50.2267C108.89 50.185 109.127 50.1187 109.275 50.0278C109.423 49.9369 109.497 49.7892 109.497 49.5846V49.5448C109.497 49.0486 109.356 48.6642 109.076 48.3914C108.8 48.1187 108.387 47.9823 107.837 47.9823C107.265 47.9823 106.815 48.1092 106.485 48.363C106.159 48.613 105.934 48.8914 105.809 49.1982L104.212 48.8346C104.402 48.3043 104.678 47.8763 105.042 47.5505C105.409 47.221 105.832 46.9823 106.309 46.8346C106.786 46.6831 107.288 46.6073 107.815 46.6073C108.163 46.6073 108.533 46.649 108.923 46.7323C109.317 46.8119 109.684 46.9596 110.025 47.1755C110.37 47.3914 110.652 47.7001 110.872 48.1017C111.091 48.4994 111.201 49.0164 111.201 49.6528V55.4482H109.542V54.2551H109.474C109.364 54.4748 109.199 54.6907 108.979 54.9028C108.76 55.1149 108.478 55.291 108.133 55.4312C107.788 55.5713 107.375 55.6414 106.894 55.6414ZM107.264 54.2778C107.733 54.2778 108.135 54.185 108.468 53.9994C108.805 53.8138 109.061 53.5713 109.235 53.2721C109.413 52.9691 109.502 52.6452 109.502 52.3005V51.1755C109.442 51.2361 109.324 51.2929 109.15 51.346C108.979 51.3952 108.784 51.4388 108.565 51.4767C108.345 51.5107 108.131 51.5429 107.923 51.5732C107.714 51.5998 107.54 51.6225 107.4 51.6414C107.07 51.6831 106.769 51.7532 106.497 51.8517C106.228 51.9501 106.012 52.0922 105.849 52.2778C105.69 52.4596 105.61 52.702 105.61 53.0051C105.61 53.4255 105.765 53.7437 106.076 53.9596C106.387 54.1717 106.783 54.2778 107.264 54.2778ZM118.42 55.6244C117.575 55.6244 116.848 55.4331 116.238 55.0505C115.632 54.6642 115.166 54.132 114.84 53.4539C114.515 52.7759 114.352 51.9994 114.352 51.1244C114.352 50.238 114.518 49.4558 114.852 48.7778C115.185 48.096 115.655 47.5638 116.261 47.1812C116.867 46.7986 117.581 46.6073 118.403 46.6073C119.066 46.6073 119.657 46.7304 120.176 46.9767C120.695 47.2191 121.113 47.56 121.431 47.9994C121.753 48.4388 121.945 48.952 122.005 49.5392H120.352C120.261 49.1301 120.053 48.7778 119.727 48.4823C119.405 48.1869 118.973 48.0392 118.431 48.0392C117.958 48.0392 117.543 48.1642 117.187 48.4142C116.835 48.6604 116.56 49.0126 116.363 49.471C116.166 49.9255 116.068 50.4634 116.068 51.0846C116.068 51.721 116.164 52.2702 116.358 52.7323C116.551 53.1945 116.823 53.5524 117.176 53.8062C117.532 54.06 117.95 54.1869 118.431 54.1869C118.753 54.1869 119.045 54.1282 119.306 54.0107C119.572 53.8895 119.793 53.7172 119.971 53.4937C120.153 53.2702 120.28 53.0013 120.352 52.6869H122.005C121.945 53.2513 121.761 53.7551 121.454 54.1982C121.147 54.6414 120.736 54.9899 120.221 55.2437C119.71 55.4975 119.109 55.6244 118.42 55.6244ZM126.664 52.488L126.653 50.4142H126.949L130.426 46.721H132.46L128.494 50.9255H128.227L126.664 52.488ZM125.102 55.4482V43.8119H126.801V55.4482H125.102ZM130.613 55.4482L127.488 51.3005L128.659 50.113L132.699 55.4482H130.613ZM144.831 55.6414C143.933 55.6376 143.166 55.4009 142.53 54.9312C141.894 54.4615 141.407 53.7778 141.07 52.8801C140.733 51.9823 140.564 50.9009 140.564 49.6357C140.564 48.3744 140.733 47.2967 141.07 46.4028C141.411 45.5088 141.899 44.827 142.536 44.3573C143.176 43.8876 143.941 43.6528 144.831 43.6528C145.721 43.6528 146.484 43.8895 147.121 44.363C147.757 44.8327 148.244 45.5145 148.581 46.4085C148.922 47.2986 149.092 48.3744 149.092 49.6357C149.092 50.9047 148.924 51.988 148.587 52.8857C148.25 53.7797 147.763 54.4634 147.126 54.9369C146.49 55.4066 145.725 55.6414 144.831 55.6414ZM144.831 54.1244C145.619 54.1244 146.234 53.7399 146.678 52.971C147.125 52.202 147.348 51.0903 147.348 49.6357C147.348 48.6698 147.246 47.8535 147.041 47.1869C146.84 46.5164 146.551 46.0088 146.172 45.6642C145.797 45.3157 145.35 45.1414 144.831 45.1414C144.047 45.1414 143.431 45.5278 142.984 46.3005C142.537 47.0732 142.312 48.185 142.308 49.6357C142.308 50.6054 142.409 51.4255 142.609 52.096C142.814 52.7626 143.104 53.2683 143.479 53.613C143.854 53.9539 144.305 54.1244 144.831 54.1244ZM152.388 55.4482V54.1755L156.326 50.096C156.746 49.6528 157.093 49.2645 157.365 48.9312C157.642 48.5941 157.848 48.274 157.985 47.971C158.121 47.6679 158.189 47.346 158.189 47.0051C158.189 46.6187 158.098 46.2854 157.916 46.0051C157.735 45.721 157.486 45.5032 157.172 45.3517C156.858 45.1963 156.504 45.1187 156.11 45.1187C155.693 45.1187 155.329 45.2039 155.019 45.3744C154.708 45.5448 154.469 45.7854 154.303 46.096C154.136 46.4066 154.053 46.7702 154.053 47.1869H152.377C152.377 46.4785 152.54 45.8592 152.865 45.3289C153.191 44.7986 153.638 44.3876 154.206 44.096C154.774 43.8005 155.42 43.6528 156.144 43.6528C156.875 43.6528 157.519 43.7986 158.076 44.0903C158.636 44.3782 159.074 44.7721 159.388 45.2721C159.702 45.7683 159.86 46.3289 159.86 46.9539C159.86 47.3857 159.778 47.8081 159.615 48.221C159.456 48.6338 159.178 49.0941 158.78 49.6017C158.382 50.1054 157.829 50.7172 157.121 51.4369L154.808 53.8573V53.9426H160.047V55.4482H152.388Z"/>
</mask>
<path d="M85.7789 45.3232V43.8119H94.7845V45.3232H91.1539V55.4482H89.4039V45.3232H85.7789ZM97.012 55.4482V46.721H98.654V48.1073H98.7449C98.904 47.6376 99.1843 47.2683 99.5859 46.9994C99.9912 46.7267 100.449 46.5903 100.961 46.5903C101.067 46.5903 101.192 46.5941 101.336 46.6017C101.484 46.6092 101.599 46.6187 101.682 46.6301V48.2551C101.614 48.2361 101.493 48.2153 101.319 48.1926C101.145 48.166 100.97 48.1528 100.796 48.1528C100.395 48.1528 100.037 48.238 99.7222 48.4085C99.4116 48.5751 99.1654 48.8081 98.9836 49.1073C98.8018 49.4028 98.7109 49.7399 98.7109 50.1187V55.4482H97.012ZM106.894 55.6414C106.341 55.6414 105.841 55.5392 105.394 55.3346C104.947 55.1263 104.593 54.8251 104.332 54.4312C104.074 54.0373 103.945 53.5543 103.945 52.9823C103.945 52.4899 104.04 52.0846 104.229 51.7664C104.419 51.4482 104.675 51.1963 104.997 51.0107C105.319 50.8251 105.678 50.685 106.076 50.5903C106.474 50.4956 106.879 50.4236 107.292 50.3744C107.815 50.3138 108.239 50.2645 108.565 50.2267C108.89 50.185 109.127 50.1187 109.275 50.0278C109.423 49.9369 109.497 49.7892 109.497 49.5846V49.5448C109.497 49.0486 109.356 48.6642 109.076 48.3914C108.8 48.1187 108.387 47.9823 107.837 47.9823C107.265 47.9823 106.815 48.1092 106.485 48.363C106.159 48.613 105.934 48.8914 105.809 49.1982L104.212 48.8346C104.402 48.3043 104.678 47.8763 105.042 47.5505C105.409 47.221 105.832 46.9823 106.309 46.8346C106.786 46.6831 107.288 46.6073 107.815 46.6073C108.163 46.6073 108.533 46.649 108.923 46.7323C109.317 46.8119 109.684 46.9596 110.025 47.1755C110.37 47.3914 110.652 47.7001 110.872 48.1017C111.091 48.4994 111.201 49.0164 111.201 49.6528V55.4482H109.542V54.2551H109.474C109.364 54.4748 109.199 54.6907 108.979 54.9028C108.76 55.1149 108.478 55.291 108.133 55.4312C107.788 55.5713 107.375 55.6414 106.894 55.6414ZM107.264 54.2778C107.733 54.2778 108.135 54.185 108.468 53.9994C108.805 53.8138 109.061 53.5713 109.235 53.2721C109.413 52.9691 109.502 52.6452 109.502 52.3005V51.1755C109.442 51.2361 109.324 51.2929 109.15 51.346C108.979 51.3952 108.784 51.4388 108.565 51.4767C108.345 51.5107 108.131 51.5429 107.923 51.5732C107.714 51.5998 107.54 51.6225 107.4 51.6414C107.07 51.6831 106.769 51.7532 106.497 51.8517C106.228 51.9501 106.012 52.0922 105.849 52.2778C105.69 52.4596 105.61 52.702 105.61 53.0051C105.61 53.4255 105.765 53.7437 106.076 53.9596C106.387 54.1717 106.783 54.2778 107.264 54.2778ZM118.42 55.6244C117.575 55.6244 116.848 55.4331 116.238 55.0505C115.632 54.6642 115.166 54.132 114.84 53.4539C114.515 52.7759 114.352 51.9994 114.352 51.1244C114.352 50.238 114.518 49.4558 114.852 48.7778C115.185 48.096 115.655 47.5638 116.261 47.1812C116.867 46.7986 117.581 46.6073 118.403 46.6073C119.066 46.6073 119.657 46.7304 120.176 46.9767C120.695 47.2191 121.113 47.56 121.431 47.9994C121.753 48.4388 121.945 48.952 122.005 49.5392H120.352C120.261 49.1301 120.053 48.7778 119.727 48.4823C119.405 48.1869 118.973 48.0392 118.431 48.0392C117.958 48.0392 117.543 48.1642 117.187 48.4142C116.835 48.6604 116.56 49.0126 116.363 49.471C116.166 49.9255 116.068 50.4634 116.068 51.0846C116.068 51.721 116.164 52.2702 116.358 52.7323C116.551 53.1945 116.823 53.5524 117.176 53.8062C117.532 54.06 117.95 54.1869 118.431 54.1869C118.753 54.1869 119.045 54.1282 119.306 54.0107C119.572 53.8895 119.793 53.7172 119.971 53.4937C120.153 53.2702 120.28 53.0013 120.352 52.6869H122.005C121.945 53.2513 121.761 53.7551 121.454 54.1982C121.147 54.6414 120.736 54.9899 120.221 55.2437C119.71 55.4975 119.109 55.6244 118.42 55.6244ZM126.664 52.488L126.653 50.4142H126.949L130.426 46.721H132.46L128.494 50.9255H128.227L126.664 52.488ZM125.102 55.4482V43.8119H126.801V55.4482H125.102ZM130.613 55.4482L127.488 51.3005L128.659 50.113L132.699 55.4482H130.613ZM144.831 55.6414C143.933 55.6376 143.166 55.4009 142.53 54.9312C141.894 54.4615 141.407 53.7778 141.07 52.8801C140.733 51.9823 140.564 50.9009 140.564 49.6357C140.564 48.3744 140.733 47.2967 141.07 46.4028C141.411 45.5088 141.899 44.827 142.536 44.3573C143.176 43.8876 143.941 43.6528 144.831 43.6528C145.721 43.6528 146.484 43.8895 147.121 44.363C147.757 44.8327 148.244 45.5145 148.581 46.4085C148.922 47.2986 149.092 48.3744 149.092 49.6357C149.092 50.9047 148.924 51.988 148.587 52.8857C148.25 53.7797 147.763 54.4634 147.126 54.9369C146.49 55.4066 145.725 55.6414 144.831 55.6414ZM144.831 54.1244C145.619 54.1244 146.234 53.7399 146.678 52.971C147.125 52.202 147.348 51.0903 147.348 49.6357C147.348 48.6698 147.246 47.8535 147.041 47.1869C146.84 46.5164 146.551 46.0088 146.172 45.6642C145.797 45.3157 145.35 45.1414 144.831 45.1414C144.047 45.1414 143.431 45.5278 142.984 46.3005C142.537 47.0732 142.312 48.185 142.308 49.6357C142.308 50.6054 142.409 51.4255 142.609 52.096C142.814 52.7626 143.104 53.2683 143.479 53.613C143.854 53.9539 144.305 54.1244 144.831 54.1244ZM152.388 55.4482V54.1755L156.326 50.096C156.746 49.6528 157.093 49.2645 157.365 48.9312C157.642 48.5941 157.848 48.274 157.985 47.971C158.121 47.6679 158.189 47.346 158.189 47.0051C158.189 46.6187 158.098 46.2854 157.916 46.0051C157.735 45.721 157.486 45.5032 157.172 45.3517C156.858 45.1963 156.504 45.1187 156.11 45.1187C155.693 45.1187 155.329 45.2039 155.019 45.3744C154.708 45.5448 154.469 45.7854 154.303 46.096C154.136 46.4066 154.053 46.7702 154.053 47.1869H152.377C152.377 46.4785 152.54 45.8592 152.865 45.3289C153.191 44.7986 153.638 44.3876 154.206 44.096C154.774 43.8005 155.42 43.6528 156.144 43.6528C156.875 43.6528 157.519 43.7986 158.076 44.0903C158.636 44.3782 159.074 44.7721 159.388 45.2721C159.702 45.7683 159.86 46.3289 159.86 46.9539C159.86 47.3857 159.778 47.8081 159.615 48.221C159.456 48.6338 159.178 49.0941 158.78 49.6017C158.382 50.1054 157.829 50.7172 157.121 51.4369L154.808 53.8573V53.9426H160.047V55.4482H152.388Z" fill="white"/>
<path d="M85.7789 45.3232H84.7789V46.3232H85.7789V45.3232ZM85.7789 43.8119V42.8119H84.7789V43.8119H85.7789ZM94.7845 43.8119H95.7845V42.8119H94.7845V43.8119ZM94.7845 45.3232V46.3232H95.7845V45.3232H94.7845ZM91.1539 45.3232V44.3232H90.1539V45.3232H91.1539ZM91.1539 55.4482V56.4482H92.1539V55.4482H91.1539ZM89.4039 55.4482H88.4039V56.4482H89.4039V55.4482ZM89.4039 45.3232H90.4039V44.3232H89.4039V45.3232ZM86.7789 45.3232V43.8119H84.7789V45.3232H86.7789ZM85.7789 44.8119H94.7845V42.8119H85.7789V44.8119ZM93.7845 43.8119V45.3232H95.7845V43.8119H93.7845ZM94.7845 44.3232H91.1539V46.3232H94.7845V44.3232ZM90.1539 45.3232V55.4482H92.1539V45.3232H90.1539ZM91.1539 54.4482H89.4039V56.4482H91.1539V54.4482ZM90.4039 55.4482V45.3232H88.4039V55.4482H90.4039ZM89.4039 44.3232H85.7789V46.3232H89.4039V44.3232ZM97.012 55.4482H96.012V56.4482H97.012V55.4482ZM97.012 46.721V45.721H96.012V46.721H97.012ZM98.654 46.721H99.654V45.721H98.654V46.721ZM98.654 48.1073H97.654V49.1073H98.654V48.1073ZM98.7449 48.1073V49.1073H99.462L99.6921 48.4281L98.7449 48.1073ZM99.5859 46.9994L100.142 47.8302L100.144 47.829L99.5859 46.9994ZM101.336 46.6017L101.283 47.6003L101.285 47.6003L101.336 46.6017ZM101.682 46.6301H102.682V45.7572L101.818 45.6392L101.682 46.6301ZM101.682 48.2551L101.415 49.2186L102.682 49.5707V48.2551H101.682ZM101.319 48.1926L101.168 49.1812L101.179 49.1828L101.189 49.1842L101.319 48.1926ZM99.7222 48.4085L100.195 49.2896L100.199 49.2876L99.7222 48.4085ZM98.9836 49.1073L99.8353 49.6314L99.8382 49.6266L98.9836 49.1073ZM98.7109 55.4482V56.4482H99.7109V55.4482H98.7109ZM98.012 55.4482V46.721H96.012V55.4482H98.012ZM97.012 47.721H98.654V45.721H97.012V47.721ZM97.654 46.721V48.1073H99.654V46.721H97.654ZM98.654 49.1073H98.7449V47.1073H98.654V49.1073ZM99.6921 48.4281C99.7826 48.1609 99.9287 47.9733 100.142 47.8302L99.0293 46.1685C98.44 46.5633 98.0255 47.1144 97.7978 47.7865L99.6921 48.4281ZM100.144 47.829C100.376 47.6727 100.639 47.5903 100.961 47.5903V45.5903C100.26 45.5903 99.6059 45.7806 99.0276 46.1697L100.144 47.829ZM100.961 47.5903C101.044 47.5903 101.151 47.5933 101.283 47.6003L101.388 45.603C101.233 45.5948 101.089 45.5903 100.961 45.5903V47.5903ZM101.285 47.6003C101.422 47.6074 101.505 47.6151 101.547 47.6209L101.818 45.6392C101.693 45.6223 101.545 45.6111 101.387 45.603L101.285 47.6003ZM100.682 46.6301V48.2551H102.682V46.6301H100.682ZM101.95 47.2915C101.806 47.2515 101.621 47.2235 101.448 47.201L101.189 49.1842C101.268 49.1944 101.328 49.2034 101.371 49.2108C101.419 49.219 101.428 49.2223 101.415 49.2186L101.95 47.2915ZM101.469 47.2039C101.246 47.1699 101.021 47.1528 100.796 47.1528V49.1528C100.919 49.1528 101.043 49.1622 101.168 49.1812L101.469 47.2039ZM100.796 47.1528C100.249 47.1528 99.7235 47.2702 99.2456 47.5294L100.199 49.2876C100.35 49.2058 100.54 49.1528 100.796 49.1528V47.1528ZM99.2494 47.5273C98.7826 47.7778 98.4041 48.1352 98.129 48.5881L99.8382 49.6266C99.9267 49.481 100.041 49.3725 100.195 49.2896L99.2494 47.5273ZM98.1319 48.5832C97.8443 49.0506 97.7109 49.5725 97.7109 50.1187H99.7109C99.7109 49.9074 99.7592 49.7549 99.8352 49.6314L98.1319 48.5832ZM97.7109 50.1187V55.4482H99.7109V50.1187H97.7109ZM98.7109 54.4482H97.012V56.4482H98.7109V54.4482ZM105.394 55.3346L104.972 56.241L104.978 56.2439L105.394 55.3346ZM104.332 54.4312L103.495 54.9785L103.498 54.984L104.332 54.4312ZM104.229 51.7664L105.089 52.2779L104.229 51.7664ZM104.997 51.0107L105.496 51.8771L104.997 51.0107ZM107.292 50.3744L107.177 49.381L107.174 49.3814L107.292 50.3744ZM108.565 50.2267L108.68 51.22L108.692 51.2186L108.565 50.2267ZM109.275 50.0278L109.799 50.8794V50.8794L109.275 50.0278ZM109.076 48.3914L108.374 49.1034L108.379 49.1081L109.076 48.3914ZM106.485 48.363L107.094 49.1563L107.095 49.1553L106.485 48.363ZM105.809 49.1982L105.587 50.1733L106.415 50.3618L106.735 49.5755L105.809 49.1982ZM104.212 48.8346L103.271 48.4983L102.892 49.5594L103.99 49.8096L104.212 48.8346ZM105.042 47.5505L105.709 48.2954L105.71 48.295L105.042 47.5505ZM106.309 46.8346L106.605 47.7899L106.612 47.7877L106.309 46.8346ZM108.923 46.7323L108.714 47.7103L108.725 47.7126L108.923 46.7323ZM110.025 47.1755L109.49 48.0203L109.494 48.023L110.025 47.1755ZM110.872 48.1017L109.994 48.5817L109.996 48.5852L110.872 48.1017ZM111.201 55.4482V56.4482H112.201V55.4482H111.201ZM109.542 55.4482H108.542V56.4482H109.542V55.4482ZM109.542 54.2551H110.542V53.2551H109.542V54.2551ZM109.474 54.2551V53.2551H108.856L108.579 53.8078L109.474 54.2551ZM108.979 54.9028L108.285 54.1834L108.979 54.9028ZM108.133 55.4312L107.756 54.5048L108.133 55.4312ZM108.468 53.9994L107.986 53.1234L107.982 53.1257L108.468 53.9994ZM109.235 53.2721L108.373 52.7656L108.371 52.7689L109.235 53.2721ZM109.502 51.1755H110.502V48.7613L108.795 50.4684L109.502 51.1755ZM109.15 51.346L109.427 52.3067L109.434 52.3047L109.441 52.3026L109.15 51.346ZM108.565 51.4767L108.718 52.4648L108.726 52.4635L108.735 52.4621L108.565 51.4767ZM107.923 51.5732L108.049 52.5652L108.058 52.5641L108.067 52.5628L107.923 51.5732ZM107.4 51.6414L107.525 52.6336L107.534 52.6324L107.4 51.6414ZM106.497 51.8517L106.157 50.9111L106.153 50.9126L106.497 51.8517ZM105.849 52.2778L105.097 51.6182L105.096 51.6193L105.849 52.2778ZM106.076 53.9596L105.505 54.7807L105.512 54.7854L106.076 53.9596ZM106.894 54.6414C106.467 54.6414 106.111 54.563 105.81 54.4253L104.978 56.2439C105.571 56.5153 106.216 56.6414 106.894 56.6414V54.6414ZM105.817 54.4282C105.529 54.2942 105.32 54.1121 105.165 53.8783L103.498 54.984C103.866 55.5382 104.365 55.9584 104.972 56.241L105.817 54.4282ZM105.169 53.8839C105.038 53.6848 104.945 53.4021 104.945 52.9823H102.945C102.945 53.7065 103.11 54.3898 103.495 54.9784L105.169 53.8839ZM104.945 52.9823C104.945 52.6123 105.017 52.3984 105.089 52.2779L103.37 51.2549C103.063 51.7708 102.945 52.3675 102.945 52.9823H104.945ZM105.089 52.2779C105.19 52.1074 105.322 51.9775 105.496 51.8771L104.497 50.1444C104.027 50.4152 103.648 50.789 103.37 51.2549L105.089 52.2779ZM105.496 51.8771C105.726 51.7443 105.995 51.6376 106.308 51.5631L105.844 49.6175C105.362 49.7323 104.911 49.906 104.497 50.1444L105.496 51.8771ZM106.308 51.5631C106.667 51.4774 107.035 51.4121 107.41 51.3673L107.174 49.3814C106.723 49.4351 106.28 49.5138 105.844 49.6175L106.308 51.5631ZM107.407 51.3677C107.93 51.3071 108.354 51.2579 108.68 51.22L108.449 49.2333C108.124 49.2712 107.699 49.3204 107.177 49.381L107.407 51.3677ZM108.692 51.2186C109.055 51.1721 109.465 51.0849 109.799 50.8794L108.751 49.1761C108.782 49.1572 108.78 49.1651 108.717 49.1827C108.658 49.1992 108.567 49.2182 108.438 49.2347L108.692 51.2186ZM109.799 50.8794C110.3 50.5713 110.497 50.0634 110.497 49.5846H108.497C108.497 49.5679 108.5 49.4958 108.547 49.4016C108.597 49.3002 108.674 49.2232 108.751 49.1761L109.799 50.8794ZM110.497 49.5846V49.5448H108.497V49.5846H110.497ZM110.497 49.5448C110.497 48.8553 110.296 48.1831 109.773 47.6747L108.379 49.1081C108.417 49.1452 108.497 49.242 108.497 49.5448H110.497ZM109.778 47.6795C109.249 47.1572 108.54 46.9823 107.837 46.9823V48.9823C108.234 48.9823 108.35 49.0802 108.374 49.1034L109.778 47.6795ZM107.837 46.9823C107.126 46.9823 106.435 47.1398 105.875 47.5707L107.095 49.1553C107.195 49.0787 107.405 48.9823 107.837 48.9823V46.9823ZM105.876 47.5697C105.443 47.9021 105.089 48.3147 104.883 48.8209L106.735 49.5755C106.779 49.4682 106.876 49.3239 107.094 49.1563L105.876 47.5697ZM106.031 48.2232L104.435 47.8596L103.99 49.8096L105.587 50.1733L106.031 48.2232ZM105.154 49.1709C105.296 48.7733 105.488 48.4939 105.709 48.2954L104.375 46.8057C103.869 47.2586 103.507 47.8353 103.271 48.4983L105.154 49.1709ZM105.71 48.295C105.968 48.0629 106.263 47.8955 106.605 47.7899L106.013 45.8793C105.4 46.0691 104.85 46.379 104.374 46.8061L105.71 48.295ZM106.612 47.7877C106.986 47.6688 107.386 47.6073 107.815 47.6073V45.6073C107.191 45.6073 106.587 45.6973 106.006 45.8815L106.612 47.7877ZM107.815 47.6073C108.084 47.6073 108.383 47.6395 108.714 47.7103L109.132 45.7544C108.682 45.6585 108.243 45.6073 107.815 45.6073V47.6073ZM108.725 47.7126C108.998 47.7678 109.252 47.8695 109.49 48.0203L110.56 46.3307C110.116 46.0497 109.635 45.8559 109.121 45.7521L108.725 47.7126ZM109.494 48.023C109.676 48.1371 109.846 48.3111 109.994 48.5817L111.749 47.6216C111.457 47.0892 111.063 46.6457 110.556 46.328L109.494 48.023ZM109.996 48.5852C110.108 48.7874 110.201 49.1214 110.201 49.6528H112.201C112.201 48.9114 112.075 48.2114 111.747 47.6181L109.996 48.5852ZM110.201 49.6528V55.4482H112.201V49.6528H110.201ZM111.201 54.4482H109.542V56.4482H111.201V54.4482ZM110.542 55.4482V54.2551H108.542V55.4482H110.542ZM109.542 53.2551H109.474V55.2551H109.542V53.2551ZM108.579 53.8078C108.531 53.9049 108.442 54.0316 108.285 54.1834L109.674 55.6222C109.956 55.3497 110.197 55.0446 110.368 54.7023L108.579 53.8078ZM108.285 54.1834C108.175 54.2898 108.008 54.4025 107.756 54.5048L108.51 56.3576C108.947 56.1795 109.345 55.94 109.674 55.6222L108.285 54.1834ZM107.756 54.5048C107.561 54.5844 107.282 54.6414 106.894 54.6414V56.6414C107.468 56.6414 108.016 56.5583 108.51 56.3576L107.756 54.5048ZM107.264 55.2778C107.865 55.2778 108.442 55.1586 108.955 54.8731L107.982 53.1257C107.828 53.2114 107.602 53.2778 107.264 53.2778V55.2778ZM108.95 54.8754C109.428 54.6124 109.824 54.2481 110.099 53.7753L108.371 52.7689C108.298 52.8946 108.182 53.0151 107.986 53.1234L108.95 54.8754ZM110.097 53.7787C110.364 53.3252 110.502 52.827 110.502 52.3005H108.502C108.502 52.4635 108.463 52.6129 108.373 52.7656L110.097 53.7787ZM110.502 52.3005V51.1755H108.502V52.3005H110.502ZM108.795 50.4684C108.838 50.4259 108.874 50.3994 108.896 50.3855C108.917 50.3712 108.931 50.3644 108.933 50.3634C108.936 50.3623 108.931 50.3646 108.918 50.3697C108.904 50.3746 108.885 50.3813 108.859 50.3893L109.441 52.3026C109.633 52.2441 109.961 52.1308 110.209 51.8826L108.795 50.4684ZM108.872 50.3853C108.745 50.4221 108.587 50.4581 108.395 50.4912L108.735 52.4621C108.982 52.4195 109.214 52.3683 109.427 52.3067L108.872 50.3853ZM108.411 50.4885C108.195 50.5221 107.984 50.5538 107.779 50.5837L108.067 52.5628C108.278 52.532 108.495 52.4994 108.718 52.4648L108.411 50.4885ZM107.796 50.5812C107.587 50.6079 107.41 50.631 107.266 50.6504L107.534 52.6324C107.671 52.6139 107.842 52.5916 108.049 52.5652L107.796 50.5812ZM107.275 50.6493C106.882 50.6989 106.508 50.7843 106.157 50.9111L106.836 52.7922C107.03 52.722 107.259 52.6673 107.525 52.6335L107.275 50.6493ZM106.153 50.9126C105.752 51.0594 105.387 51.288 105.097 51.6182L106.6 52.9374C106.636 52.8964 106.703 52.8409 106.84 52.7907L106.153 50.9126ZM105.096 51.6193C104.74 52.0262 104.61 52.5235 104.61 53.0051H106.61C106.61 52.9401 106.619 52.9115 106.62 52.9077C106.621 52.9061 106.62 52.9093 106.616 52.9158C106.612 52.9223 106.607 52.9295 106.601 52.9363L105.096 51.6193ZM104.61 53.0051C104.61 53.7104 104.893 54.3548 105.505 54.7807L106.647 53.1385C106.632 53.1282 106.627 53.122 106.626 53.1211C106.625 53.1205 106.626 53.1209 106.625 53.1204C106.625 53.1196 106.621 53.1125 106.618 53.0955C106.614 53.078 106.61 53.0488 106.61 53.0051H104.61ZM105.512 54.7854C106.03 55.1389 106.637 55.2778 107.264 55.2778V53.2778C106.928 53.2778 106.744 53.2045 106.64 53.1338L105.512 54.7854ZM116.238 55.0505L115.701 55.8938L115.707 55.8976L116.238 55.0505ZM114.852 48.7778L115.749 49.219L115.75 49.217L114.852 48.7778ZM116.261 47.1812L115.727 46.3356L116.261 47.1812ZM120.176 46.9767L119.747 47.8801L119.752 47.8827L120.176 46.9767ZM121.431 47.9994L120.621 48.5859L120.625 48.5904L121.431 47.9994ZM122.005 49.5392V50.5392H123.114L123 49.4365L122.005 49.5392ZM120.352 49.5392L119.376 49.7561L119.55 50.5392H120.352V49.5392ZM119.727 48.4823L119.051 49.2191L119.055 49.2231L119.727 48.4823ZM117.187 48.4142L117.76 49.2338L117.762 49.2326L117.187 48.4142ZM116.363 49.471L117.281 49.8686L117.282 49.8658L116.363 49.471ZM116.358 52.7323L117.28 52.3466L116.358 52.7323ZM117.176 53.8062L116.591 54.6176L116.595 54.6205L117.176 53.8062ZM119.306 54.0107L119.716 54.9229L119.722 54.9202L119.306 54.0107ZM119.971 53.4937L119.195 52.8626L119.189 52.8706L119.971 53.4937ZM120.352 52.6869V51.6869H119.555L119.377 52.4637L120.352 52.6869ZM122.005 52.6869L123 52.7936L123.118 51.6869H122.005V52.6869ZM121.454 54.1982L122.276 54.7675L121.454 54.1982ZM120.221 55.2437L119.779 54.3466L119.777 54.3479L120.221 55.2437ZM118.42 54.6244C117.73 54.6244 117.194 54.4698 116.77 54.2034L115.707 55.8976C116.502 56.3963 117.42 56.6244 118.42 56.6244V54.6244ZM116.776 54.2073C116.334 53.9259 115.991 53.5392 115.742 53.0209L113.939 53.887C114.342 54.7248 114.93 55.4024 115.701 55.8937L116.776 54.2073ZM115.742 53.0209C115.491 52.4983 115.352 51.8738 115.352 51.1244H113.352C113.352 52.1249 113.539 53.0534 113.939 53.887L115.742 53.0209ZM115.352 51.1244C115.352 50.3646 115.494 49.7379 115.749 49.219L113.954 48.3366C113.543 49.1738 113.352 50.1114 113.352 51.1244H115.352ZM115.75 49.217C116.007 48.6916 116.355 48.3044 116.795 48.0268L115.727 46.3356C114.955 46.8231 114.363 47.5003 113.953 48.3386L115.75 49.217ZM116.795 48.0268C117.219 47.7592 117.742 47.6073 118.403 47.6073V45.6073C117.42 45.6073 116.515 45.838 115.727 46.3356L116.795 48.0268ZM118.403 47.6073C118.94 47.6073 119.381 47.7066 119.747 47.8801L120.604 46.0732C119.932 45.7543 119.191 45.6073 118.403 45.6073V47.6073ZM119.752 47.8827C120.126 48.0573 120.409 48.2919 120.621 48.5859L122.241 47.4129C121.818 46.8281 121.263 46.3808 120.599 46.0706L119.752 47.8827ZM120.625 48.5904C120.833 48.8748 120.967 49.2161 121.011 49.6418L123 49.4365C122.923 48.688 122.674 48.0028 122.238 47.4083L120.625 48.5904ZM122.005 48.5392H120.352V50.5392H122.005V48.5392ZM121.328 49.3222C121.19 48.7009 120.87 48.1687 120.399 47.7416L119.055 49.2231C119.236 49.3869 119.332 49.5592 119.376 49.7561L121.328 49.3222ZM120.403 47.7455C119.855 47.2427 119.161 47.0392 118.431 47.0392V49.0392C118.785 49.0392 118.955 49.1311 119.051 49.2191L120.403 47.7455ZM118.431 47.0392C117.771 47.0392 117.152 47.2171 116.612 47.5957L117.762 49.2326C117.934 49.1113 118.144 49.0392 118.431 49.0392V47.0392ZM116.614 47.5945C116.086 47.9636 115.703 48.4747 115.444 49.0761L117.282 49.8658C117.417 49.5505 117.583 49.3572 117.76 49.2338L116.614 47.5945ZM115.446 49.0734C115.182 49.681 115.068 50.3602 115.068 51.0846H117.068C117.068 50.5666 117.15 50.1701 117.281 49.8686L115.446 49.0734ZM115.068 51.0846C115.068 51.819 115.179 52.5055 115.435 53.118L117.28 52.3466C117.15 52.0349 117.068 51.623 117.068 51.0846H115.068ZM115.435 53.118C115.688 53.7239 116.067 54.2401 116.591 54.6176L117.76 52.9948C117.58 52.8647 117.413 52.665 117.28 52.3466L115.435 53.118ZM116.595 54.6205C117.138 55.0072 117.764 55.1869 118.431 55.1869V53.1869C118.137 53.1869 117.926 53.1128 117.756 52.9919L116.595 54.6205ZM118.431 55.1869C118.877 55.1869 119.311 55.105 119.716 54.9229L118.897 53.0986C118.779 53.1513 118.63 53.1869 118.431 53.1869V55.1869ZM119.722 54.9202C120.127 54.735 120.475 54.4658 120.753 54.1168L119.189 52.8706C119.111 52.9686 119.016 53.044 118.891 53.1013L119.722 54.9202ZM120.747 54.1248C121.036 53.7688 121.225 53.3558 121.327 52.91L119.377 52.4637C119.335 52.6467 119.269 52.7716 119.195 52.8626L120.747 54.1248ZM120.352 53.6869H122.005V51.6869H120.352V53.6869ZM121.011 52.5801C120.967 52.9875 120.839 53.3306 120.632 53.629L122.276 54.7675C122.683 54.1796 122.922 53.515 123 52.7936L121.011 52.5801ZM120.632 53.629C120.428 53.9232 120.152 54.1629 119.779 54.3466L120.663 56.1407C121.32 55.8169 121.866 55.3596 122.276 54.7675L120.632 53.629ZM119.777 54.3479C119.429 54.5204 118.987 54.6244 118.42 54.6244V56.6244C119.232 56.6244 119.99 56.4746 120.666 56.1394L119.777 54.3479ZM126.664 52.488L125.665 52.4935L125.678 54.8891L127.372 53.1951L126.664 52.488ZM126.653 50.4142V49.4142H125.648L125.653 50.4196L126.653 50.4142ZM126.949 50.4142V51.4142H127.381L127.677 51.0997L126.949 50.4142ZM130.426 46.721V45.721H129.994L129.698 46.0355L130.426 46.721ZM132.46 46.721L133.187 47.4071L134.778 45.721H132.46V46.721ZM128.494 50.9255V51.9255H128.925L129.221 51.6117L128.494 50.9255ZM128.227 50.9255V49.9255H127.813L127.52 50.2184L128.227 50.9255ZM125.102 55.4482H124.102V56.4482H125.102V55.4482ZM125.102 43.8119V42.8119H124.102V43.8119H125.102ZM126.801 43.8119H127.801V42.8119H126.801V43.8119ZM126.801 55.4482V56.4482H127.801V55.4482H126.801ZM130.613 55.4482L129.815 56.05L130.115 56.4482H130.613V55.4482ZM127.488 51.3005L126.776 50.5985L126.17 51.2131L126.69 51.9023L127.488 51.3005ZM128.659 50.113L129.456 49.5094L128.758 48.5877L127.947 49.411L128.659 50.113ZM132.699 55.4482V56.4482H134.71L133.496 54.8446L132.699 55.4482ZM127.664 52.4825L127.653 50.4087L125.653 50.4196L125.665 52.4935L127.664 52.4825ZM126.653 51.4142H126.949V49.4142H126.653V51.4142ZM127.677 51.0997L131.154 47.4065L129.698 46.0355L126.221 49.7286L127.677 51.0997ZM130.426 47.721H132.46V45.721H130.426V47.721ZM131.732 46.0348L127.767 50.2394L129.221 51.6117L133.187 47.4071L131.732 46.0348ZM128.494 49.9255H128.227V51.9255H128.494V49.9255ZM127.52 50.2184L125.957 51.7809L127.372 53.1951L128.934 51.6326L127.52 50.2184ZM126.102 55.4482V43.8119H124.102V55.4482H126.102ZM125.102 44.8119H126.801V42.8119H125.102V44.8119ZM125.801 43.8119V55.4482H127.801V43.8119H125.801ZM126.801 54.4482H125.102V56.4482H126.801V54.4482ZM131.412 54.8465L128.287 50.6988L126.69 51.9023L129.815 56.05L131.412 54.8465ZM128.201 52.0025L129.371 50.815L127.947 49.411L126.776 50.5985L128.201 52.0025ZM127.862 50.7167L131.901 56.0519L133.496 54.8446L129.456 49.5094L127.862 50.7167ZM132.699 54.4482H130.613V56.4482H132.699V54.4482ZM144.831 55.6414L144.827 56.6414H144.831V55.6414ZM141.07 52.8801L142.006 52.5285L141.07 52.8801ZM141.07 46.4028L140.135 46.0465L140.134 46.0499L141.07 46.4028ZM142.536 44.3573L141.944 43.5511L141.942 43.5528L142.536 44.3573ZM147.121 44.363L146.524 45.1653L146.527 45.1676L147.121 44.363ZM148.581 46.4085L147.645 46.7613L147.647 46.7661L148.581 46.4085ZM148.587 52.8857L149.522 53.2386L149.523 53.2373L148.587 52.8857ZM147.126 54.9369L147.72 55.7415L147.723 55.7392L147.126 54.9369ZM146.678 52.971L145.813 52.4684L145.811 52.4716L146.678 52.971ZM147.041 47.1869L146.083 47.4737L146.085 47.4802L147.041 47.1869ZM146.172 45.6642L145.491 46.3967L145.499 46.4038L146.172 45.6642ZM142.984 46.3005L142.119 45.7998L142.984 46.3005ZM142.308 49.6357L141.308 49.6331V49.6357H142.308ZM142.609 52.096L141.651 52.3828L141.653 52.3893L142.609 52.096ZM143.479 53.613L142.802 54.3493L142.806 54.353L143.479 53.613ZM144.835 54.6414C144.12 54.6384 143.567 54.4536 143.124 54.1266L141.936 55.7358C142.766 56.3482 143.747 56.6369 144.827 56.6414L144.835 54.6414ZM143.124 54.1266C142.673 53.794 142.29 53.2841 142.006 52.5285L140.133 53.2316C140.524 54.2715 141.114 55.129 141.936 55.7358L143.124 54.1266ZM142.006 52.5285C141.722 51.7727 141.564 50.817 141.564 49.6357H139.564C139.564 50.9848 139.743 52.192 140.133 53.2316L142.006 52.5285ZM141.564 49.6357C141.564 48.4585 141.722 47.5071 142.005 46.7556L140.134 46.0499C139.743 47.0863 139.564 48.2903 139.564 49.6357H141.564ZM142.004 46.7591C142.291 46.0063 142.677 45.496 143.129 45.1619L141.942 43.5528C141.122 44.158 140.53 45.0114 140.135 46.0465L142.004 46.7591ZM143.127 45.1636C143.575 44.8348 144.127 44.6528 144.831 44.6528V42.6528C143.755 42.6528 142.776 42.9404 141.944 43.5511L143.127 45.1636ZM144.831 44.6528C145.534 44.6528 146.081 44.8357 146.524 45.1653L147.718 43.5607C146.888 42.9433 145.909 42.6528 144.831 42.6528V44.6528ZM146.527 45.1676C146.979 45.5009 147.362 46.0099 147.645 46.7613L149.517 46.0556C149.126 45.0192 148.536 44.1645 147.715 43.5584L146.527 45.1676ZM147.647 46.7661C147.933 47.5118 148.092 48.4593 148.092 49.6357H150.092C150.092 48.2894 149.911 47.0855 149.515 46.0508L147.647 46.7661ZM148.092 49.6357C148.092 50.8212 147.934 51.7787 147.651 52.5342L149.523 53.2373C149.913 52.1974 150.092 50.9881 150.092 49.6357H148.092ZM147.651 52.5329C147.368 53.2847 146.983 53.7969 146.53 54.1346L147.723 55.7392C148.542 55.1299 149.132 54.2747 149.522 53.2386L147.651 52.5329ZM146.533 54.1323C146.09 54.4588 145.54 54.6414 144.831 54.6414V56.6414C145.91 56.6414 146.89 56.3543 147.72 55.7415L146.533 54.1323ZM144.831 55.1244C146.028 55.1244 146.949 54.5018 147.544 53.4703L145.811 52.4716C145.519 52.978 145.21 53.1244 144.831 53.1244V55.1244ZM147.542 53.4735C148.117 52.4839 148.348 51.1665 148.348 49.6357H146.348C146.348 51.0141 146.132 51.9202 145.813 52.4684L147.542 53.4735ZM148.348 49.6357C148.348 48.6057 148.24 47.6839 147.997 46.8936L146.085 47.4802C146.252 48.0231 146.348 48.734 146.348 49.6357H148.348ZM147.999 46.9C147.765 46.1169 147.399 45.4284 146.845 44.9245L145.499 46.4038C145.703 46.5893 145.916 46.9159 146.083 47.4737L147.999 46.9ZM146.853 44.9316C146.29 44.4086 145.599 44.1414 144.831 44.1414V46.1414C145.101 46.1414 145.304 46.2227 145.491 46.3967L146.853 44.9316ZM144.831 44.1414C143.634 44.1414 142.715 44.7694 142.119 45.7998L143.85 46.8012C144.148 46.2861 144.46 46.1414 144.831 46.1414V44.1414ZM142.119 45.7998C141.546 46.7907 141.312 48.1054 141.308 49.6331L143.308 49.6384C143.312 48.2645 143.529 47.3557 143.85 46.8012L142.119 45.7998ZM141.308 49.6357C141.308 50.6681 141.414 51.5912 141.651 52.3828L143.567 51.8091C143.403 51.2598 143.308 50.5428 143.308 49.6357H141.308ZM141.653 52.3893C141.892 53.1657 142.257 53.8479 142.802 54.3492L144.155 52.8768C143.951 52.6887 143.736 52.3596 143.565 51.8026L141.653 52.3893ZM142.806 54.353C143.373 54.8682 144.066 55.1244 144.831 55.1244V53.1244C144.543 53.1244 144.335 53.0396 144.151 52.8731L142.806 54.353ZM152.388 55.4482H151.388V56.4482H152.388V55.4482ZM152.388 54.1755L151.668 53.481L151.388 53.7716V54.1755H152.388ZM156.326 50.096L157.045 50.7905L157.051 50.7842L156.326 50.096ZM157.365 48.9312L156.592 48.297L156.591 48.298L157.365 48.9312ZM157.916 46.0051L157.074 46.5441L157.077 46.5493L157.916 46.0051ZM157.172 45.3517L156.729 46.2483L156.738 46.2525L157.172 45.3517ZM154.053 47.1869V48.1869H155.053V47.1869H154.053ZM152.377 47.1869H151.377V48.1869H152.377V47.1869ZM152.865 45.3289L153.717 45.8523V45.8523L152.865 45.3289ZM154.206 44.096L154.663 44.9856L154.668 44.9832L154.206 44.096ZM158.076 44.0903L157.611 44.9761L157.619 44.9799L158.076 44.0903ZM159.388 45.2721L158.541 45.8044L158.543 45.8073L159.388 45.2721ZM159.615 48.221L158.685 47.854L158.682 47.8614L159.615 48.221ZM158.78 49.6017L159.565 50.2213L159.567 50.2184L158.78 49.6017ZM157.121 51.4369L156.408 50.7354L156.403 50.7407L156.398 50.7461L157.121 51.4369ZM154.808 53.8573L154.085 53.1665L153.808 53.4564V53.8573H154.808ZM154.808 53.9426H153.808V54.9426H154.808V53.9426ZM160.047 53.9426H161.047V52.9426H160.047V53.9426ZM160.047 55.4482V56.4482H161.047V55.4482H160.047ZM153.388 55.4482V54.1755H151.388V55.4482H153.388ZM153.108 54.87L157.045 50.7904L155.606 49.4015L151.668 53.481L153.108 54.87ZM157.051 50.7842C157.482 50.33 157.846 49.9227 158.139 49.5644L156.591 48.298C156.339 48.6064 156.01 48.9756 155.6 49.4077L157.051 50.7842ZM158.138 49.5654C158.455 49.18 158.715 48.7853 158.897 48.3813L157.073 47.5606C156.982 47.7627 156.829 48.0082 156.592 48.297L158.138 49.5654ZM158.897 48.3813C159.092 47.9459 159.189 47.4837 159.189 47.0051H157.189C157.189 47.2083 157.149 47.39 157.073 47.5606L158.897 48.3813ZM159.189 47.0051C159.189 46.4565 159.058 45.9273 158.755 45.4609L157.077 46.5493C157.139 46.6434 157.189 46.7809 157.189 47.0051H159.189ZM158.759 45.466C158.473 45.0202 158.081 44.6798 157.606 44.4508L156.738 46.2525C156.892 46.3265 156.996 46.4217 157.074 46.5441L158.759 45.466ZM157.615 44.4551C157.147 44.2237 156.638 44.1187 156.11 44.1187V46.1187C156.369 46.1187 156.569 46.1689 156.729 46.2482L157.615 44.4551ZM156.11 44.1187C155.554 44.1187 155.02 44.2332 154.538 44.4977L155.5 46.251C155.639 46.1747 155.831 46.1187 156.11 46.1187V44.1187ZM154.538 44.4977C154.058 44.7607 153.68 45.1411 153.422 45.6232L155.184 46.5688C155.259 46.4296 155.358 46.3289 155.5 46.251L154.538 44.4977ZM153.422 45.6232C153.164 46.1035 153.053 46.6352 153.053 47.1869H155.053C155.053 46.9052 155.108 46.7097 155.184 46.5688L153.422 45.6232ZM154.053 46.1869H152.377V48.1869H154.053V46.1869ZM153.377 47.1869C153.377 46.6372 153.501 46.2043 153.717 45.8523L152.013 44.8055C151.578 45.5141 151.377 46.3199 151.377 47.1869H153.377ZM153.717 45.8523C153.945 45.4822 154.253 45.196 154.663 44.9856L153.75 43.2063C153.023 43.5793 152.437 44.115 152.013 44.8055L153.717 45.8523ZM154.668 44.9832C155.076 44.771 155.56 44.6528 156.144 44.6528V42.6528C155.281 42.6528 154.473 42.8301 153.745 43.2088L154.668 44.9832ZM156.144 44.6528C156.74 44.6528 157.22 44.7708 157.612 44.9761L158.54 43.2045C157.818 42.8264 157.01 42.6528 156.144 42.6528V44.6528ZM157.619 44.9799C158.031 45.1915 158.329 45.4665 158.541 45.8044L160.235 44.7398C159.818 44.0777 159.241 43.5649 158.532 43.2007L157.619 44.9799ZM158.543 45.8073C158.75 46.1331 158.86 46.5058 158.86 46.9539H160.86C160.86 46.1521 160.655 45.4036 160.233 44.7369L158.543 45.8073ZM158.86 46.9539C158.86 47.2566 158.803 47.5547 158.685 47.854L160.546 48.5879C160.753 48.0615 160.86 47.5149 160.86 46.9539H158.86ZM158.682 47.8614C158.571 48.15 158.355 48.5231 157.993 48.9849L159.567 50.2184C160.001 49.6651 160.341 49.1176 160.548 48.5805L158.682 47.8614ZM157.995 48.982C157.629 49.4459 157.104 50.0288 156.408 50.7354L157.834 52.1383C158.555 51.4056 159.136 50.765 159.565 50.2213L157.995 48.982ZM156.398 50.7461L154.085 53.1665L155.532 54.5481L157.844 52.1277L156.398 50.7461ZM153.808 53.8573V53.9426H155.808V53.8573H153.808ZM154.808 54.9426H160.047V52.9426H154.808V54.9426ZM159.047 53.9426V55.4482H161.047V53.9426H159.047ZM160.047 54.4482H152.388V56.4482H160.047V54.4482Z" fill="black" mask="url(#path-3-outside-1_1029_1767)"/>
<rect x="56.9351" y="71.7129" width="137.445" height="21.9684" rx="10.9842" fill="#D9D9D9" stroke="black"/>
<path d="M80.2344 84.3146C80.2344 87.242 77.8628 89.6146 74.9379 89.6146C72.0129 89.6146 69.6413 87.242 69.6413 84.3146C69.6413 81.3873 72.0129 79.0146 74.9379 79.0146C77.8628 79.0146 80.2344 81.3873 80.2344 84.3146Z" fill="#5A4C4C" stroke="black"/>
<path d="M178.776 84.3146C178.776 87.242 176.404 89.6146 173.479 89.6146C170.554 89.6146 168.183 87.242 168.183 84.3146C168.183 81.3873 170.554 79.0146 173.479 79.0146C176.404 79.0146 178.776 81.3873 178.776 84.3146Z" fill="#5A4C4C" stroke="black"/>
<rect x="89.2133" y="75.5664" width="69.9905" height="14.2611" fill="#5A4C4C" stroke="black"/>
<path d="M52.4144 150.782L59.3745 126.407L189.043 126.407L196.003 150.782H52.4144Z" fill="url(#paint1_linear_1029_1767)" stroke="black"/>
</g>
<defs>
<filter id="filter0_d_1029_1767" x="0.103699" y="0.282227" width="259.108" height="165" filterUnits="userSpaceOnUse" color-interpolation-filters="sRGB">
<feFlood flood-opacity="0" result="BackgroundImageFix"/>
<feColorMatrix in="SourceAlpha" type="matrix" values="0 0 0 0 0 0 0 0 0 0 0 0 0 0 0 0 0 0 127 0" result="hardAlpha"/>
<feOffset dx="4" dy="4"/>
<feGaussianBlur stdDeviation="5"/>
<feComposite in2="hardAlpha" operator="out"/>
<feColorMatrix type="matrix" values="0 0 0 0 1 0 0 0 0 1 0 0 0 0 1 0 0 0 0.25 0"/>
<feBlend mode="normal" in2="BackgroundImageFix" result="effect1_dropShadow_1029_1767"/>
<feBlend mode="normal" in="SourceGraphic" in2="effect1_dropShadow_1029_1767" result="shape"/>
</filter>
<linearGradient id="paint0_linear_1029_1767" x1="125.658" y1="24.2295" x2="190.841" y2="118.161" gradientUnits="userSpaceOnUse">
<stop stop-color="#727272"/>
<stop offset="1" stop-color="#D8D8D8"/>
</linearGradient>
<linearGradient id="paint1_linear_1029_1767" x1="68.7485" y1="151.282" x2="196.667" y2="138.61" gradientUnits="userSpaceOnUse">
<stop stop-color="#E04040"/>
<stop offset="1" stop-color="#7A2323"/>
</linearGradient>
</defs>
</svg>
